<?xml version="1.0" encoding="UTF-8" standalone="no"?><svg xmlns="http://www.w3.org/2000/svg" xmlns:xlink="http://www.w3.org/1999/xlink" contentScriptType="application/ecmascript" contentStyleType="text/css" height="527px" preserveAspectRatio="none" style="width:1131px;height:527px;background:#FFFFFF;" version="1.1" viewBox="0 0 1131 527" width="1131px" zoomAndPan="magnify"><defs><filter height="300%" id="f1f19qyfvzr1fj" width="300%" x="-1" y="-1"><feGaussianBlur result="blurOut" stdDeviation="2.0"/><feColorMatrix in="blurOut" result="blurOut2" type="matrix" values="0 0 0 0 0 0 0 0 0 0 0 0 0 0 0 0 0 0 .4 0"/><feOffset dx="4.0" dy="4.0" in="blurOut2" result="blurOut3"/><feBlend in="SourceGraphic" in2="blurOut3" mode="normal"/></filter></defs><g><text fill="#888888" font-family="sans-serif" font-size="10" lengthAdjust="spacing" textLength="95" x="511.75" y="9.2822">Elevator Simulation</text><!--MD5=[93e485d66e62470c0e68a81214641dfb]
class Elevator--><rect codeLine="5" fill="#FEFECE" filter="url(#f1f19qyfvzr1fj)" height="137.6328" id="Elevator" style="stroke:#A80036;stroke-width:1.5;" width="190" x="619" y="18.6406"/><ellipse cx="684.25" cy="34.6406" fill="#ADD1B2" rx="11" ry="11" style="stroke:#A80036;stroke-width:1.0;"/><path d="M687.2188,40.2813 Q686.6406,40.5781 686,40.7188 Q685.3594,40.875 684.6563,40.875 Q682.1563,40.875 680.8281,39.2344 Q679.5156,37.5781 679.5156,34.4531 Q679.5156,31.3281 680.8281,29.6719 Q682.1563,28.0156 684.6563,28.0156 Q685.3594,28.0156 686,28.1719 Q686.6563,28.3281 687.2188,28.625 L687.2188,31.3438 Q686.5938,30.7656 686,30.5 Q685.4063,30.2188 684.7813,30.2188 Q683.4375,30.2188 682.75,31.2969 Q682.0625,32.3594 682.0625,34.4531 Q682.0625,36.5469 682.75,37.625 Q683.4375,38.6875 684.7813,38.6875 Q685.4063,38.6875 686,38.4219 Q686.5938,38.1406 687.2188,37.5625 L687.2188,40.2813 Z " fill="#000000"/><text fill="#000000" font-family="sans-serif" font-size="12" lengthAdjust="spacing" textLength="51" x="704.75" y="38.7949">Elevator</text><line style="stroke:#A80036;stroke-width:1.5;" x1="620" x2="808" y1="50.6406" y2="50.6406"/><rect fill="none" height="6" style="stroke:#C82930;stroke-width:1.0;" width="6" x="627" y="58.6406"/><text fill="#000000" font-family="sans-serif" font-size="11" lengthAdjust="spacing" textLength="72" x="639" y="64.8511">capacity : int</text><rect fill="none" height="6" style="stroke:#C82930;stroke-width:1.0;" width="6" x="627" y="71.4453"/><text fill="#000000" font-family="sans-serif" font-size="11" lengthAdjust="spacing" textLength="52" x="639" y="77.6558">floor : int</text><rect fill="none" height="6" style="stroke:#C82930;stroke-width:1.0;" width="6" x="627" y="84.25"/><text fill="#000000" font-family="sans-serif" font-size="11" lengthAdjust="spacing" textLength="154" x="639" y="90.4604">controlPanel : ControlPanel</text><rect fill="none" height="6" style="stroke:#C82930;stroke-width:1.0;" width="6" x="627" y="97.0547"/><text fill="#000000" font-family="sans-serif" font-size="11" lengthAdjust="spacing" textLength="65" x="639" y="103.2651">door : Door</text><rect fill="none" height="6" style="stroke:#C82930;stroke-width:1.0;" width="6" x="627" y="109.8594"/><text fill="#000000" font-family="sans-serif" font-size="11" lengthAdjust="spacing" textLength="164" x="639" y="116.0698">indicatorLight : IndicatorLight</text><line style="stroke:#A80036;stroke-width:1.5;" x1="620" x2="808" y1="122.6641" y2="122.6641"/><ellipse cx="630" cy="133.6641" fill="#84BE84" rx="3" ry="3" style="stroke:#038048;stroke-width:1.0;"/><text fill="#000000" font-family="sans-serif" font-size="11" lengthAdjust="spacing" textLength="100" x="639" y="136.8745">getCapacity() : int</text><ellipse cx="630" cy="146.4688" fill="#84BE84" rx="3" ry="3" style="stroke:#038048;stroke-width:1.0;"/><text fill="#000000" font-family="sans-serif" font-size="11" lengthAdjust="spacing" textLength="80" x="639" y="149.6792">getFloor() : int</text><!--MD5=[2c3c6816e40c1af2f27858b7ee658c3a]
class ControlPanel--><rect codeLine="15" fill="#FEFECE" filter="url(#f1f19qyfvzr1fj)" height="137.6328" id="ControlPanel" style="stroke:#A80036;stroke-width:1.5;" width="211" x="906.5" y="222.6406"/><ellipse cx="967.75" cy="238.6406" fill="#ADD1B2" rx="11" ry="11" style="stroke:#A80036;stroke-width:1.0;"/><path d="M970.7188,244.2813 Q970.1406,244.5781 969.5,244.7188 Q968.8594,244.875 968.1563,244.875 Q965.6563,244.875 964.3281,243.2344 Q963.0156,241.5781 963.0156,238.4531 Q963.0156,235.3281 964.3281,233.6719 Q965.6563,232.0156 968.1563,232.0156 Q968.8594,232.0156 969.5,232.1719 Q970.1563,232.3281 970.7188,232.625 L970.7188,235.3438 Q970.0938,234.7656 969.5,234.5 Q968.9063,234.2188 968.2813,234.2188 Q966.9375,234.2188 966.25,235.2969 Q965.5625,236.3594 965.5625,238.4531 Q965.5625,240.5469 966.25,241.625 Q966.9375,242.6875 968.2813,242.6875 Q968.9063,242.6875 969.5,242.4219 Q970.0938,242.1406 970.7188,241.5625 L970.7188,244.2813 Z " fill="#000000"/><text fill="#000000" font-family="sans-serif" font-size="12" lengthAdjust="spacing" textLength="80" x="988.25" y="242.7949">ControlPanel</text><line style="stroke:#A80036;stroke-width:1.5;" x1="907.5" x2="1116.5" y1="254.6406" y2="254.6406"/><rect fill="none" height="6" style="stroke:#C82930;stroke-width:1.0;" width="6" x="914.5" y="262.6406"/><text fill="#000000" font-family="sans-serif" font-size="11" lengthAdjust="spacing" textLength="157" x="926.5" y="268.8511">emergencyButton : boolean</text><rect fill="none" height="6" style="stroke:#C82930;stroke-width:1.0;" width="6" x="914.5" y="275.4453"/><text fill="#000000" font-family="sans-serif" font-size="11" lengthAdjust="spacing" textLength="88" x="926.5" y="281.6558">targetFloor : int</text><line style="stroke:#A80036;stroke-width:1.5;" x1="907.5" x2="1116.5" y1="288.25" y2="288.25"/><ellipse cx="917.5" cy="299.25" fill="#84BE84" rx="3" ry="3" style="stroke:#038048;stroke-width:1.0;"/><text fill="#000000" font-family="sans-serif" font-size="11" lengthAdjust="spacing" textLength="185" x="926.5" y="302.4604">isEmergencyPressed() : boolean</text><ellipse cx="917.5" cy="312.0547" fill="#84BE84" rx="3" ry="3" style="stroke:#038048;stroke-width:1.0;"/><text fill="#000000" font-family="sans-serif" font-size="11" lengthAdjust="spacing" textLength="132" x="926.5" y="315.2651">isDoorOpen() : boolean</text><ellipse cx="917.5" cy="324.8594" fill="#84BE84" rx="3" ry="3" style="stroke:#038048;stroke-width:1.0;"/><text fill="#000000" font-family="sans-serif" font-size="11" lengthAdjust="spacing" textLength="120" x="926.5" y="328.0698">openDoor() : boolean</text><ellipse cx="917.5" cy="337.6641" fill="#84BE84" rx="3" ry="3" style="stroke:#038048;stroke-width:1.0;"/><text fill="#000000" font-family="sans-serif" font-size="11" lengthAdjust="spacing" textLength="122" x="926.5" y="340.8745">closeDoor() : boolean</text><ellipse cx="917.5" cy="350.4688" fill="#84BE84" rx="3" ry="3" style="stroke:#038048;stroke-width:1.0;"/><text fill="#000000" font-family="sans-serif" font-size="11" lengthAdjust="spacing" textLength="141" x="926.5" y="353.6792">setFloor(floor : int) : void</text><!--MD5=[ff61424299de7fbd1b7bbdfe7c644dfd]
class Door--><rect codeLine="25" fill="#FEFECE" filter="url(#f1f19qyfvzr1fj)" height="86.4141" id="Door" style="stroke:#A80036;stroke-width:1.5;" width="245" x="653.5" y="426.6406"/><ellipse cx="756.75" cy="442.6406" fill="#ADD1B2" rx="11" ry="11" style="stroke:#A80036;stroke-width:1.0;"/><path d="M759.7188,448.2813 Q759.1406,448.5781 758.5,448.7188 Q757.8594,448.875 757.1563,448.875 Q754.6563,448.875 753.3281,447.2344 Q752.0156,445.5781 752.0156,442.4531 Q752.0156,439.3281 753.3281,437.6719 Q754.6563,436.0156 757.1563,436.0156 Q757.8594,436.0156 758.5,436.1719 Q759.1563,436.3281 759.7188,436.625 L759.7188,439.3438 Q759.0938,438.7656 758.5,438.5 Q757.9063,438.2188 757.2813,438.2188 Q755.9375,438.2188 755.25,439.2969 Q754.5625,440.3594 754.5625,442.4531 Q754.5625,444.5469 755.25,445.625 Q755.9375,446.6875 757.2813,446.6875 Q757.9063,446.6875 758.5,446.4219 Q759.0938,446.1406 759.7188,445.5625 L759.7188,448.2813 Z " fill="#000000"/><text fill="#000000" font-family="sans-serif" font-size="12" lengthAdjust="spacing" textLength="30" x="777.25" y="446.7949">Door</text><line style="stroke:#A80036;stroke-width:1.5;" x1="654.5" x2="897.5" y1="458.6406" y2="458.6406"/><rect fill="none" height="6" style="stroke:#C82930;stroke-width:1.0;" width="6" x="661.5" y="466.6406"/><text fill="#000000" font-family="sans-serif" font-size="11" lengthAdjust="spacing" textLength="101" x="673.5" y="472.8511">doorState : string</text><line style="stroke:#A80036;stroke-width:1.5;" x1="654.5" x2="897.5" y1="479.4453" y2="479.4453"/><ellipse cx="664.5" cy="490.4453" fill="#84BE84" rx="3" ry="3" style="stroke:#038048;stroke-width:1.0;"/><text fill="#000000" font-family="sans-serif" font-size="11" lengthAdjust="spacing" textLength="128" x="673.5" y="493.6558">getDoorState() : string</text><ellipse cx="664.5" cy="503.25" fill="#84BE84" rx="3" ry="3" style="stroke:#038048;stroke-width:1.0;"/><text fill="#000000" font-family="sans-serif" font-size="11" lengthAdjust="spacing" textLength="219" x="673.5" y="506.4604">setDoorState(doorState : string) : void</text><!--MD5=[3c8c450c4cc8f58f533e992fc90bad64]
class IndicatorLight--><rect codeLine="31" fill="#FEFECE" filter="url(#f1f19qyfvzr1fj)" height="137.6328" id="IndicatorLight" style="stroke:#A80036;stroke-width:1.5;" width="172" x="628" y="222.6406"/><ellipse cx="667.75" cy="238.6406" fill="#ADD1B2" rx="11" ry="11" style="stroke:#A80036;stroke-width:1.0;"/><path d="M670.7188,244.2813 Q670.1406,244.5781 669.5,244.7188 Q668.8594,244.875 668.1563,244.875 Q665.6563,244.875 664.3281,243.2344 Q663.0156,241.5781 663.0156,238.4531 Q663.0156,235.3281 664.3281,233.6719 Q665.6563,232.0156 668.1563,232.0156 Q668.8594,232.0156 669.5,232.1719 Q670.1563,232.3281 670.7188,232.625 L670.7188,235.3438 Q670.0938,234.7656 669.5,234.5 Q668.9063,234.2188 668.2813,234.2188 Q666.9375,234.2188 666.25,235.2969 Q665.5625,236.3594 665.5625,238.4531 Q665.5625,240.5469 666.25,241.625 Q666.9375,242.6875 668.2813,242.6875 Q668.9063,242.6875 669.5,242.4219 Q670.0938,242.1406 670.7188,241.5625 L670.7188,244.2813 Z " fill="#000000"/><text fill="#000000" font-family="sans-serif" font-size="12" lengthAdjust="spacing" textLength="85" x="687.25" y="242.7949">IndicatorLight</text><line style="stroke:#A80036;stroke-width:1.5;" x1="629" x2="799" y1="254.6406" y2="254.6406"/><rect fill="none" height="6" style="stroke:#C82930;stroke-width:1.0;" width="6" x="636" y="262.6406"/><text fill="#000000" font-family="sans-serif" font-size="11" lengthAdjust="spacing" textLength="99" x="648" y="268.8511">lightState : string</text><rect fill="none" height="6" style="stroke:#C82930;stroke-width:1.0;" width="6" x="636" y="275.4453"/><text fill="#000000" font-family="sans-serif" font-size="11" lengthAdjust="spacing" textLength="94" x="648" y="281.6558">direction : string</text><rect fill="none" height="6" style="stroke:#C82930;stroke-width:1.0;" width="6" x="636" y="288.25"/><text fill="#000000" font-family="sans-serif" font-size="11" lengthAdjust="spacing" textLength="97" x="648" y="294.4604">floorNumber : int</text><line style="stroke:#A80036;stroke-width:1.5;" x1="629" x2="799" y1="301.0547" y2="301.0547"/><ellipse cx="639" cy="312.0547" fill="#84BE84" rx="3" ry="3" style="stroke:#038048;stroke-width:1.0;"/><text fill="#000000" font-family="sans-serif" font-size="11" lengthAdjust="spacing" textLength="131" x="648" y="315.2651">turnLightOn() : booelan</text><ellipse cx="639" cy="324.8594" fill="#84BE84" rx="3" ry="3" style="stroke:#038048;stroke-width:1.0;"/><text fill="#000000" font-family="sans-serif" font-size="11" lengthAdjust="spacing" textLength="132" x="648" y="328.0698">turnLightOff() : boolean</text><ellipse cx="639" cy="337.6641" fill="#84BE84" rx="3" ry="3" style="stroke:#038048;stroke-width:1.0;"/><text fill="#000000" font-family="sans-serif" font-size="11" lengthAdjust="spacing" textLength="123" x="648" y="340.8745">showDirection() : void</text><ellipse cx="639" cy="350.4688" fill="#84BE84" rx="3" ry="3" style="stroke:#038048;stroke-width:1.0;"/><text fill="#000000" font-family="sans-serif" font-size="11" lengthAdjust="spacing" textLength="146" x="648" y="353.6792">showFloorNumber() : void</text><!--MD5=[8560f289a30852a9f75d64e53f926853]
class Building--><rect codeLine="41" fill="#FEFECE" filter="url(#f1f19qyfvzr1fj)" height="124.8281" id="Building" style="stroke:#A80036;stroke-width:1.5;" width="197" x="308.5" y="25.1406"/><ellipse cx="378.25" cy="41.1406" fill="#ADD1B2" rx="11" ry="11" style="stroke:#A80036;stroke-width:1.0;"/><path d="M381.2188,46.7813 Q380.6406,47.0781 380,47.2188 Q379.3594,47.375 378.6563,47.375 Q376.1563,47.375 374.8281,45.7344 Q373.5156,44.0781 373.5156,40.9531 Q373.5156,37.8281 374.8281,36.1719 Q376.1563,34.5156 378.6563,34.5156 Q379.3594,34.5156 380,34.6719 Q380.6563,34.8281 381.2188,35.125 L381.2188,37.8438 Q380.5938,37.2656 380,37 Q379.4063,36.7188 378.7813,36.7188 Q377.4375,36.7188 376.75,37.7969 Q376.0625,38.8594 376.0625,40.9531 Q376.0625,43.0469 376.75,44.125 Q377.4375,45.1875 378.7813,45.1875 Q379.4063,45.1875 380,44.9219 Q380.5938,44.6406 381.2188,44.0625 L381.2188,46.7813 Z " fill="#000000"/><text fill="#000000" font-family="sans-serif" font-size="12" lengthAdjust="spacing" textLength="49" x="398.75" y="45.2949">Building</text><line style="stroke:#A80036;stroke-width:1.5;" x1="309.5" x2="504.5" y1="57.1406" y2="57.1406"/><rect fill="none" height="6" style="stroke:#C82930;stroke-width:1.0;" width="6" x="316.5" y="65.1406"/><text fill="#000000" font-family="sans-serif" font-size="11" lengthAdjust="spacing" textLength="77" x="328.5" y="71.3511">name : string</text><rect fill="none" height="6" style="stroke:#C82930;stroke-width:1.0;" width="6" x="316.5" y="77.9453"/><text fill="#000000" font-family="sans-serif" font-size="11" lengthAdjust="spacing" textLength="66" x="328.5" y="84.1558">floor : Floor</text><line style="stroke:#A80036;stroke-width:1.5;" x1="309.5" x2="504.5" y1="90.75" y2="90.75"/><ellipse cx="319.5" cy="101.75" fill="#84BE84" rx="3" ry="3" style="stroke:#038048;stroke-width:1.0;"/><text fill="#000000" font-family="sans-serif" font-size="11" lengthAdjust="spacing" textLength="104" x="328.5" y="104.9604">getName() : string</text><ellipse cx="319.5" cy="114.5547" fill="#84BE84" rx="3" ry="3" style="stroke:#038048;stroke-width:1.0;"/><text fill="#000000" font-family="sans-serif" font-size="11" lengthAdjust="spacing" textLength="171" x="328.5" y="117.7651">setName(name : string) : void</text><ellipse cx="319.5" cy="127.3594" fill="#84BE84" rx="3" ry="3" style="stroke:#038048;stroke-width:1.0;"/><text fill="#000000" font-family="sans-serif" font-size="11" lengthAdjust="spacing" textLength="94" x="328.5" y="130.5698">getFloor() : Floor</text><ellipse cx="319.5" cy="140.1641" fill="#84BE84" rx="3" ry="3" style="stroke:#038048;stroke-width:1.0;"/><text fill="#000000" font-family="sans-serif" font-size="11" lengthAdjust="spacing" textLength="155" x="328.5" y="143.3745">setFloor(floor : Floor) : void</text><!--MD5=[b098efa4dd65edfeebe973e4edec7c36]
class Floor--><rect codeLine="50" fill="#FEFECE" filter="url(#f1f19qyfvzr1fj)" height="112.0234" id="Floor" style="stroke:#A80036;stroke-width:1.5;" width="190" x="234" y="235.6406"/><ellipse cx="309.25" cy="251.6406" fill="#ADD1B2" rx="11" ry="11" style="stroke:#A80036;stroke-width:1.0;"/><path d="M312.2188,257.2813 Q311.6406,257.5781 311,257.7188 Q310.3594,257.875 309.6563,257.875 Q307.1563,257.875 305.8281,256.2344 Q304.5156,254.5781 304.5156,251.4531 Q304.5156,248.3281 305.8281,246.6719 Q307.1563,245.0156 309.6563,245.0156 Q310.3594,245.0156 311,245.1719 Q311.6563,245.3281 312.2188,245.625 L312.2188,248.3438 Q311.5938,247.7656 311,247.5 Q310.4063,247.2188 309.7813,247.2188 Q308.4375,247.2188 307.75,248.2969 Q307.0625,249.3594 307.0625,251.4531 Q307.0625,253.5469 307.75,254.625 Q308.4375,255.6875 309.7813,255.6875 Q310.4063,255.6875 311,255.4219 Q311.5938,255.1406 312.2188,254.5625 L312.2188,257.2813 Z " fill="#000000"/><text fill="#000000" font-family="sans-serif" font-size="12" lengthAdjust="spacing" textLength="31" x="329.75" y="255.7949">Floor</text><line style="stroke:#A80036;stroke-width:1.5;" x1="235" x2="423" y1="267.6406" y2="267.6406"/><rect fill="none" height="6" style="stroke:#C82930;stroke-width:1.0;" width="6" x="242" y="275.6406"/><text fill="#000000" font-family="sans-serif" font-size="11" lengthAdjust="spacing" textLength="70" x="254" y="281.8511">number : int</text><rect fill="none" height="6" style="stroke:#C82930;stroke-width:1.0;" width="6" x="242" y="288.4453"/><text fill="#000000" font-family="sans-serif" font-size="11" lengthAdjust="spacing" textLength="164" x="254" y="294.6558">elevatorShaft : ElevatorShaft</text><rect fill="none" height="6" style="stroke:#C82930;stroke-width:1.0;" width="6" x="242" y="301.25"/><text fill="#000000" font-family="sans-serif" font-size="11" lengthAdjust="spacing" textLength="123" x="254" y="307.4604">buttonSet : ButtonSet</text><rect fill="none" height="6" style="stroke:#C82930;stroke-width:1.0;" width="6" x="242" y="314.0547"/><text fill="#000000" font-family="sans-serif" font-size="11" lengthAdjust="spacing" textLength="144" x="254" y="320.2651">warningBell : WarningBell</text><rect fill="none" height="6" style="stroke:#C82930;stroke-width:1.0;" width="6" x="242" y="326.8594"/><text fill="#000000" font-family="sans-serif" font-size="11" lengthAdjust="spacing" textLength="164" x="254" y="333.0698">indicatorLight : IndicatorLight</text><line style="stroke:#A80036;stroke-width:1.5;" x1="235" x2="423" y1="339.6641" y2="339.6641"/><!--MD5=[bbc3e39149e997c0efe868c1ed5ac152]
class ElevatorShaft--><rect codeLine="58" fill="#FEFECE" filter="url(#f1f19qyfvzr1fj)" height="60.8047" id="ElevatorShaft" style="stroke:#A80036;stroke-width:1.5;" width="116" x="348" y="439.1406"/><ellipse cx="363" cy="455.1406" fill="#ADD1B2" rx="11" ry="11" style="stroke:#A80036;stroke-width:1.0;"/><path d="M365.9688,460.7813 Q365.3906,461.0781 364.75,461.2188 Q364.1094,461.375 363.4063,461.375 Q360.9063,461.375 359.5781,459.7344 Q358.2656,458.0781 358.2656,454.9531 Q358.2656,451.8281 359.5781,450.1719 Q360.9063,448.5156 363.4063,448.5156 Q364.1094,448.5156 364.75,448.6719 Q365.4063,448.8281 365.9688,449.125 L365.9688,451.8438 Q365.3438,451.2656 364.75,451 Q364.1563,450.7188 363.5313,450.7188 Q362.1875,450.7188 361.5,451.7969 Q360.8125,452.8594 360.8125,454.9531 Q360.8125,457.0469 361.5,458.125 Q362.1875,459.1875 363.5313,459.1875 Q364.1563,459.1875 364.75,458.9219 Q365.3438,458.6406 365.9688,458.0625 L365.9688,460.7813 Z " fill="#000000"/><text fill="#000000" font-family="sans-serif" font-size="12" lengthAdjust="spacing" textLength="84" x="377" y="459.2949">ElevatorShaft</text><line style="stroke:#A80036;stroke-width:1.5;" x1="349" x2="463" y1="471.1406" y2="471.1406"/><rect fill="none" height="6" style="stroke:#C82930;stroke-width:1.0;" width="6" x="356" y="479.1406"/><text fill="#000000" font-family="sans-serif" font-size="11" lengthAdjust="spacing" textLength="65" x="368" y="485.3511">door : Door</text><line style="stroke:#A80036;stroke-width:1.5;" x1="349" x2="463" y1="491.9453" y2="491.9453"/><!--MD5=[90ba54f54370e77ef24813dec6818fa3]
class Button--><rect codeLine="62" fill="#FEFECE" filter="url(#f1f19qyfvzr1fj)" height="86.4141" id="Button" style="stroke:#A80036;stroke-width:1.5;" width="156" x="25" y="426.6406"/><ellipse cx="77.75" cy="442.6406" fill="#ADD1B2" rx="11" ry="11" style="stroke:#A80036;stroke-width:1.0;"/><path d="M80.7188,448.2813 Q80.1406,448.5781 79.5,448.7188 Q78.8594,448.875 78.1563,448.875 Q75.6563,448.875 74.3281,447.2344 Q73.0156,445.5781 73.0156,442.4531 Q73.0156,439.3281 74.3281,437.6719 Q75.6563,436.0156 78.1563,436.0156 Q78.8594,436.0156 79.5,436.1719 Q80.1563,436.3281 80.7188,436.625 L80.7188,439.3438 Q80.0938,438.7656 79.5,438.5 Q78.9063,438.2188 78.2813,438.2188 Q76.9375,438.2188 76.25,439.2969 Q75.5625,440.3594 75.5625,442.4531 Q75.5625,444.5469 76.25,445.625 Q76.9375,446.6875 78.2813,446.6875 Q78.9063,446.6875 79.5,446.4219 Q80.0938,446.1406 80.7188,445.5625 L80.7188,448.2813 Z " fill="#000000"/><text fill="#000000" font-family="sans-serif" font-size="12" lengthAdjust="spacing" textLength="42" x="98.25" y="446.7949">Button</text><line style="stroke:#A80036;stroke-width:1.5;" x1="26" x2="180" y1="458.6406" y2="458.6406"/><rect fill="none" height="6" style="stroke:#C82930;stroke-width:1.0;" width="6" x="33" y="466.6406"/><text fill="#000000" font-family="sans-serif" font-size="11" lengthAdjust="spacing" textLength="80" x="45" y="472.8511">upCall : string</text><rect fill="none" height="6" style="stroke:#C82930;stroke-width:1.0;" width="6" x="33" y="479.4453"/><text fill="#000000" font-family="sans-serif" font-size="11" lengthAdjust="spacing" textLength="96" x="45" y="485.6558">downCall : string</text><line style="stroke:#A80036;stroke-width:1.5;" x1="26" x2="180" y1="492.25" y2="492.25"/><ellipse cx="36" cy="503.25" fill="#84BE84" rx="3" ry="3" style="stroke:#038048;stroke-width:1.0;"/><text fill="#000000" font-family="sans-serif" font-size="11" lengthAdjust="spacing" textLength="130" x="45" y="506.4604">callElevator() : boolean</text><!--MD5=[1d61550385f02da692c03f8db72c81b5]
class ButtonSet--><rect codeLine="68" fill="#FEFECE" filter="url(#f1f19qyfvzr1fj)" height="150.4375" id="ButtonSet" style="stroke:#A80036;stroke-width:1.5;" width="192" x="7" y="216.6406"/><ellipse cx="67.25" cy="232.6406" fill="#ADD1B2" rx="11" ry="11" style="stroke:#A80036;stroke-width:1.0;"/><path d="M70.2188,238.2813 Q69.6406,238.5781 69,238.7188 Q68.3594,238.875 67.6563,238.875 Q65.1563,238.875 63.8281,237.2344 Q62.5156,235.5781 62.5156,232.4531 Q62.5156,229.3281 63.8281,227.6719 Q65.1563,226.0156 67.6563,226.0156 Q68.3594,226.0156 69,226.1719 Q69.6563,226.3281 70.2188,226.625 L70.2188,229.3438 Q69.5938,228.7656 69,228.5 Q68.4063,228.2188 67.7813,228.2188 Q66.4375,228.2188 65.75,229.2969 Q65.0625,230.3594 65.0625,232.4531 Q65.0625,234.5469 65.75,235.625 Q66.4375,236.6875 67.7813,236.6875 Q68.4063,236.6875 69,236.4219 Q69.5938,236.1406 70.2188,235.5625 L70.2188,238.2813 Z " fill="#000000"/><text fill="#000000" font-family="sans-serif" font-size="12" lengthAdjust="spacing" textLength="63" x="87.75" y="236.7949">ButtonSet</text><line style="stroke:#A80036;stroke-width:1.5;" x1="8" x2="198" y1="248.6406" y2="248.6406"/><rect fill="none" height="6" style="stroke:#C82930;stroke-width:1.0;" width="6" x="15" y="256.6406"/><text fill="#000000" font-family="sans-serif" font-size="11" lengthAdjust="spacing" textLength="92" x="27" y="262.8511">button1 : Button</text><rect fill="none" height="6" style="stroke:#C82930;stroke-width:1.0;" width="6" x="15" y="269.4453"/><text fill="#000000" font-family="sans-serif" font-size="11" lengthAdjust="spacing" textLength="92" x="27" y="275.6558">button2 : Button</text><rect fill="none" height="6" style="stroke:#C82930;stroke-width:1.0;" width="6" x="15" y="282.25"/><text fill="#000000" font-family="sans-serif" font-size="11" lengthAdjust="spacing" textLength="92" x="27" y="288.4604">button3 : Button</text><line style="stroke:#A80036;stroke-width:1.5;" x1="8" x2="198" y1="295.0547" y2="295.0547"/><ellipse cx="18" cy="306.0547" fill="#84BE84" rx="3" ry="3" style="stroke:#038048;stroke-width:1.0;"/><text fill="#000000" font-family="sans-serif" font-size="11" lengthAdjust="spacing" textLength="166" x="27" y="309.2651">isButton1Pressed() : boolean</text><ellipse cx="18" cy="318.8594" fill="#84BE84" rx="3" ry="3" style="stroke:#038048;stroke-width:1.0;"/><text fill="#000000" font-family="sans-serif" font-size="11" lengthAdjust="spacing" textLength="166" x="27" y="322.0698">isButton2Pressed() : boolean</text><ellipse cx="18" cy="331.6641" fill="#84BE84" rx="3" ry="3" style="stroke:#038048;stroke-width:1.0;"/><text fill="#000000" font-family="sans-serif" font-size="11" lengthAdjust="spacing" textLength="166" x="27" y="334.8745">isButton3Pressed() : boolean</text><ellipse cx="18" cy="344.4688" fill="#84BE84" rx="3" ry="3" style="stroke:#038048;stroke-width:1.0;"/><text fill="#000000" font-family="sans-serif" font-size="11" lengthAdjust="spacing" textLength="121" x="27" y="347.6792">getDirection() : string</text><ellipse cx="18" cy="357.2734" fill="#84BE84" rx="3" ry="3" style="stroke:#038048;stroke-width:1.0;"/><text fill="#000000" font-family="sans-serif" font-size="11" lengthAdjust="spacing" textLength="162" x="27" y="360.4839">checkAvailableElevator() : int</text><!--MD5=[45372e19670ba964cf079df863c89a81]
class WarningBell--><rect codeLine="79" fill="#FEFECE" filter="url(#f1f19qyfvzr1fj)" height="73.6094" id="WarningBell" style="stroke:#A80036;stroke-width:1.5;" width="134" x="459" y="254.6406"/><ellipse cx="487.05" cy="270.6406" fill="#ADD1B2" rx="11" ry="11" style="stroke:#A80036;stroke-width:1.0;"/><path d="M490.0188,276.2813 Q489.4406,276.5781 488.8,276.7188 Q488.1594,276.875 487.4563,276.875 Q484.9563,276.875 483.6281,275.2344 Q482.3156,273.5781 482.3156,270.4531 Q482.3156,267.3281 483.6281,265.6719 Q484.9563,264.0156 487.4563,264.0156 Q488.1594,264.0156 488.8,264.1719 Q489.4563,264.3281 490.0188,264.625 L490.0188,267.3438 Q489.3938,266.7656 488.8,266.5 Q488.2063,266.2188 487.5813,266.2188 Q486.2375,266.2188 485.55,267.2969 Q484.8625,268.3594 484.8625,270.4531 Q484.8625,272.5469 485.55,273.625 Q486.2375,274.6875 487.5813,274.6875 Q488.2063,274.6875 488.8,274.4219 Q489.3938,274.1406 490.0188,273.5625 L490.0188,276.2813 Z " fill="#000000"/><text fill="#000000" font-family="sans-serif" font-size="12" lengthAdjust="spacing" textLength="73" x="503.95" y="274.7949">WarningBell</text><line style="stroke:#A80036;stroke-width:1.5;" x1="460" x2="592" y1="286.6406" y2="286.6406"/><rect fill="none" height="6" style="stroke:#C82930;stroke-width:1.0;" width="6" x="467" y="294.6406"/><text fill="#000000" font-family="sans-serif" font-size="11" lengthAdjust="spacing" textLength="95" x="479" y="300.8511">bellState : string</text><line style="stroke:#A80036;stroke-width:1.5;" x1="460" x2="592" y1="307.4453" y2="307.4453"/><ellipse cx="470" cy="318.4453" fill="#84BE84" rx="3" ry="3" style="stroke:#038048;stroke-width:1.0;"/><text fill="#000000" font-family="sans-serif" font-size="11" lengthAdjust="spacing" textLength="108" x="479" y="321.6558">ringBell() : boolean</text><!--MD5=[c5fead04db50ad272312b70da3db85d3]
link Building to Floor--><path codeLine="84" d="M378.8455,161.5343 C378.8455,161.5343 362.5,203.8706 354.99,223.3306 " fill="none" id="Building-Floor" style="stroke:#A80036;stroke-width:1.0;"/><line style="stroke:#A80036;stroke-width:1.0;" x1="353.183" x2="357.7625" y1="228.0182" y2="235.4806"/><line style="stroke:#A80036;stroke-width:1.0;" x1="353.183" x2="342.8375" y1="228.0182" y2="235.4806"/><line style="stroke:#A80036;stroke-width:1.0;" x1="353.183" x2="350.3" y1="228.0182" y2="235.4806"/><polygon fill="#A80036" points="383.17,150.3406,377.2765,154.496,378.8455,161.5343,384.739,157.379,383.17,150.3406" style="stroke:#A80036;stroke-width:1.0;"/><!--MD5=[ff932f6882b9b21e4e2a2cd8313daebb]
link Building to Elevator--><path codeLine="85" d="M517.64,87.6406 C517.64,87.6406 576.64,87.6406 605.51,87.6406 " fill="none" id="Building-Elevator" style="stroke:#A80036;stroke-width:1.0;"/><line style="stroke:#A80036;stroke-width:1.0;" x1="610.77" x2="618.77" y1="87.6406" y2="79.6406"/><line style="stroke:#A80036;stroke-width:1.0;" x1="610.77" x2="618.77" y1="87.6406" y2="95.6406"/><line style="stroke:#A80036;stroke-width:1.0;" x1="610.77" x2="618.77" y1="87.6406" y2="87.6406"/><polygon fill="#A80036" points="505.64,87.6406,511.64,91.6406,517.64,87.6406,511.64,83.6406,505.64,87.6406" style="stroke:#A80036;stroke-width:1.0;"/><!--MD5=[fc8bba2bac43e3045c1311f485a65c2b]
link Floor to ElevatorShaft--><path codeLine="86" d="M357.9612,358.8339 C357.9612,358.8339 378.92,406.7406 387.63,426.6406 " fill="none" id="Floor-ElevatorShaft" style="stroke:#A80036;stroke-width:1.0;"/><line style="stroke:#A80036;stroke-width:1.0;" x1="389.7025" x2="400.2389" y1="431.3918" y2="438.7206"/><line style="stroke:#A80036;stroke-width:1.0;" x1="389.7025" x2="385.5811" y1="431.3918" y2="438.7206"/><line style="stroke:#A80036;stroke-width:1.0;" x1="389.7025" x2="392.91" y1="431.3918" y2="438.7206"/><polygon fill="#A80036" points="353.15,347.8406,351.8912,354.941,357.9612,358.8339,359.22,351.7335,353.15,347.8406" style="stroke:#A80036;stroke-width:1.0;"/><!--MD5=[7cd8e1e2bf546c97c3a9734448c90b15]
link ButtonSet to Floor--><path codeLine="87" d="M212.25,291.6406 C215.07,291.6406 221.95,291.6406 221.95,291.6406 " fill="none" id="ButtonSet-Floor" style="stroke:#A80036;stroke-width:1.0;"/><polygon fill="#A80036" points="233.95,291.6406,227.95,287.6406,221.95,291.6406,227.95,295.6406,233.95,291.6406" style="stroke:#A80036;stroke-width:1.0;"/><line style="stroke:#A80036;stroke-width:1.0;" x1="203.23" x2="203.23" y1="295.6406" y2="287.6406"/><line style="stroke:#A80036;stroke-width:1.0;" x1="206.23" x2="206.23" y1="295.6406" y2="287.6406"/><line style="stroke:#A80036;stroke-width:1.0;" x1="207.23" x2="199.23" y1="291.6406" y2="291.6406"/><!--MD5=[fb49f831fd008e2fbea00cd3f246ce67]
link Floor to WarningBell--><path codeLine="88" d="M436.04,291.6406 C436.04,291.6406 442.87,291.6406 445.66,291.6406 " fill="none" id="Floor-WarningBell" style="stroke:#A80036;stroke-width:1.0;"/><line style="stroke:#A80036;stroke-width:1.0;" x1="454.69" x2="454.69" y1="287.6406" y2="295.6406"/><line style="stroke:#A80036;stroke-width:1.0;" x1="451.69" x2="451.69" y1="287.6406" y2="295.6406"/><line style="stroke:#A80036;stroke-width:1.0;" x1="450.69" x2="458.69" y1="291.6406" y2="291.6406"/><polygon fill="#A80036" points="424.04,291.6406,430.04,295.6406,436.04,291.6406,430.04,287.6406,424.04,291.6406" style="stroke:#A80036;stroke-width:1.0;"/><!--MD5=[f1c59b3aef5aa9bb06d47d1ee83ccb94]
link Floor to IndicatorLight--><path codeLine="89" d="M390.5364,227.6457 C390.5364,227.6457 434.22,195.2506 458.5,186.6406 C515.05,166.5906 537.31,165.5906 593.5,186.6406 C610.44,192.9806 626.56,202.9006 641.19,214.1706 " fill="none" id="Floor-IndicatorLight" style="stroke:#A80036;stroke-width:1.0;"/><line style="stroke:#A80036;stroke-width:1.0;" x1="650.971" x2="645.9339" y1="216.9545" y2="223.1696"/><line style="stroke:#A80036;stroke-width:1.0;" x1="648.6404" x2="643.6032" y1="215.0656" y2="221.2807"/><line style="stroke:#A80036;stroke-width:1.0;" x1="645.3449" x2="651.56" y1="217.5435" y2="222.5806"/><polygon fill="#A80036" points="381.43,235.4606,388.5882,234.5886,390.5364,227.6457,383.3782,228.5177,381.43,235.4606" style="stroke:#A80036;stroke-width:1.0;"/><!--MD5=[182d347248e94ea03e36f32bc9469f3f]
link ElevatorShaft to Door--><path codeLine="90" d="M476.17,469.6406 C476.17,469.6406 585.98,469.6406 640.23,469.6406 " fill="none" id="ElevatorShaft-Door" style="stroke:#A80036;stroke-width:1.0;"/><line style="stroke:#A80036;stroke-width:1.0;" x1="649.28" x2="649.28" y1="465.6406" y2="473.6406"/><line style="stroke:#A80036;stroke-width:1.0;" x1="646.28" x2="646.28" y1="465.6406" y2="473.6406"/><line style="stroke:#A80036;stroke-width:1.0;" x1="645.28" x2="653.28" y1="469.6406" y2="469.6406"/><polygon fill="#A80036" points="464.17,469.6406,470.17,473.6406,476.17,469.6406,470.17,465.6406,464.17,469.6406" style="stroke:#A80036;stroke-width:1.0;"/><!--MD5=[81644e2b9b29455765c286d4f8c6064f]
link ButtonSet to Button--><path codeLine="92" d="M103,378.7706 C103,378.7706 103,402.4906 103,412.9406 " fill="none" id="ButtonSet-Button" style="stroke:#A80036;stroke-width:1.0;"/><line style="stroke:#A80036;stroke-width:1.0;" x1="103" x2="111" y1="418.2106" y2="426.2106"/><line style="stroke:#A80036;stroke-width:1.0;" x1="103" x2="95" y1="418.2106" y2="426.2106"/><line style="stroke:#A80036;stroke-width:1.0;" x1="103" x2="103" y1="418.2106" y2="426.2106"/><polygon fill="#A80036" points="103,366.7706,99,372.7706,103,378.7706,107,372.7706,103,366.7706" style="stroke:#A80036;stroke-width:1.0;"/><!--MD5=[710e418c5e633dd9cf126312ac37b566]
link Elevator to ControlPanel--><path codeLine="94" d="M819.0456,159.8399 C819.0456,159.8399 874.35,197.3306 900.8,215.2606 " fill="none" id="Elevator-ControlPanel" style="stroke:#A80036;stroke-width:1.0;"/><line style="stroke:#A80036;stroke-width:1.0;" x1="910.5578" x2="906.0757" y1="217.0463" y2="223.6728"/><line style="stroke:#A80036;stroke-width:1.0;" x1="908.0729" x2="903.5907" y1="215.3655" y2="221.992"/><line style="stroke:#A80036;stroke-width:1.0;" x1="905.0035" x2="911.63" y1="218.1185" y2="222.6006"/><polygon fill="#A80036" points="809.11,153.1106,811.8347,159.7871,819.0456,159.8399,816.3209,153.1634,809.11,153.1106" style="stroke:#A80036;stroke-width:1.0;"/><!--MD5=[b38c34240abd447ebfbcc88688205a1e]
link Elevator to Door--><path codeLine="95" d="M790.4948,166.2695 C790.4948,166.2695 811.81,199.2106 818,216.6406 C840.31,279.4606 830.94,301.2406 818,366.6406 C814.84,382.6406 809.13,399.2806 802.92,414.3706 " fill="none" id="Elevator-Door" style="stroke:#A80036;stroke-width:1.0;"/><line style="stroke:#A80036;stroke-width:1.0;" x1="802.888" x2="795.5435" y1="424.5341" y2="421.3626"/><line style="stroke:#A80036;stroke-width:1.0;" x1="804.0773" x2="796.7328" y1="421.7799" y2="418.6084"/><line style="stroke:#A80036;stroke-width:1.0;" x1="800.8015" x2="797.63" y1="419.2761" y2="426.6206"/><polygon fill="#A80036" points="783.28,156.6806,783.6911,163.88,790.4948,166.2695,790.0837,159.0702,783.28,156.6806" style="stroke:#A80036;stroke-width:1.0;"/><!--MD5=[3f902f95b21469565ab16521b228a36d]
link Elevator to IndicatorLight--><path codeLine="96" d="M714,168.7506 C714,168.7506 714,196.2406 714,209.1906 " fill="none" id="Elevator-IndicatorLight" style="stroke:#A80036;stroke-width:1.0;"/><line style="stroke:#A80036;stroke-width:1.0;" x1="718" x2="710" y1="218.4906" y2="218.4906"/><line style="stroke:#A80036;stroke-width:1.0;" x1="718" x2="710" y1="215.4906" y2="215.4906"/><line style="stroke:#A80036;stroke-width:1.0;" x1="714" x2="714" y1="214.4906" y2="222.4906"/><polygon fill="#A80036" points="714,156.7506,710,162.7506,714,168.7506,718,162.7506,714,156.7506" style="stroke:#A80036;stroke-width:1.0;"/><!--MD5=[f037ff2d76634fa24015eb09cb79d64a]
link Elevator to ButtonSet--><path codeLine="97" d="M618.7,125.7106 C588.41,136.6506 554.57,147.9906 523,156.6406 C388.92,193.3906 344.78,164.2506 216,216.6406 C210.35,218.9406 204.69,221.5306 199.06,224.3406 " fill="none" id="Elevator-ButtonSet" style="stroke:#A80036;stroke-width:1.0;"/><!--MD5=[e7e7a65cfe6ab6fae4797f50990877e0]
@startuml
center header
Elevator Simulation
endheader

class Elevator {
  -capacity : int
  -floor : int
  -controlPanel : ControlPanel
  -door : Door
  -indicatorLight : IndicatorLight
  +getCapacity() : int
  +getFloor() : int
}

class ControlPanel {
  -emergencyButton : boolean
  -targetFloor : int
  +isEmergencyPressed() : boolean
  +isDoorOpen() : boolean
  +openDoor() : boolean
  +closeDoor() : boolean
  +setFloor(floor : int) : void
}

class Door {
  -doorState : string
  +getDoorState() : string
  +setDoorState(doorState : string) : void
}

class IndicatorLight {
  -lightState : string
  -direction : string
  -floorNumber : int
  +turnLightOn() : booelan
  +turnLightOff() : boolean
  +showDirection() : void
  +showFloorNumber() : void
}

class Building {
  -name : string
  -floor : Floor
  +getName() : string
  +setName(name : string) : void
  +getFloor() : Floor
  +setFloor(floor : Floor) : void
}

class Floor {
  -number : int
  -elevatorShaft : ElevatorShaft
  -buttonSet : ButtonSet
  -warningBell : WarningBell
  -indicatorLight : IndicatorLight
}

class ElevatorShaft {
  -door : Door 
}

class Button {
  -upCall : string
  -downCall : string
  +callElevator() : boolean
}

class ButtonSet {
  -button1 : Button
  -button2 : Button
  -button3 : Button
  +isButton1Pressed() : boolean
  +isButton2Pressed() : boolean
  +isButton3Pressed() : boolean
  +getDirection() : string
  +checkAvailableElevator() : int
}

class WarningBell {
  -bellState : string
  +ringBell() : boolean
}

Building *- -{ Floor
Building *-{ Elevator
Floor *- -{ ElevatorShaft
Floor *-left-|| ButtonSet
Floor *-|| WarningBell
Floor *-|| IndicatorLight
ElevatorShaft *-|| Door

ButtonSet *- -{ Button

Elevator *- -|| ControlPanel
Elevator *- -|| Door
Elevator *- -|| IndicatorLight
Elevator - - ButtonSet
@enduml

PlantUML version 1.2021.16(Wed Dec 08 17:25:22 UTC 2021)
(GPL source distribution)
Java Runtime: OpenJDK Runtime Environment
JVM: OpenJDK 64-Bit Server VM
Default Encoding: UTF-8
Language: en
Country: US
--></g></svg>