<?xml version="1.0" encoding="UTF-8" standalone="no"?><svg xmlns="http://www.w3.org/2000/svg" xmlns:xlink="http://www.w3.org/1999/xlink" contentScriptType="application/ecmascript" contentStyleType="text/css" height="526px" preserveAspectRatio="none" style="width:658px;height:526px;background:#FFFFFF;" version="1.1" viewBox="0 0 658 526" width="658px" zoomAndPan="magnify"><defs><filter height="300%" id="fpsk5dollqhbf" width="300%" x="-1" y="-1"><feGaussianBlur result="blurOut" stdDeviation="2.0"/><feColorMatrix in="blurOut" result="blurOut2" type="matrix" values="0 0 0 0 0 0 0 0 0 0 0 0 0 0 0 0 0 0 .4 0"/><feOffset dx="4.0" dy="4.0" in="blurOut2" result="blurOut3"/><feBlend in="SourceGraphic" in2="blurOut3" mode="normal"/></filter></defs><g><text fill="#888888" font-family="sans-serif" font-size="10" lengthAdjust="spacing" textLength="135" x="255" y="9.2822">Flight Management System</text><!--MD5=[ffe09eff7e904b42cb9ab485252a98fc]
class Airport--><rect codeLine="5" fill="#FEFECE" filter="url(#fpsk5dollqhbf)" height="124.8281" id="Airport" style="stroke:#A80036;stroke-width:1.5;" width="189" x="7" y="76.1406"/><ellipse cx="76.25" cy="92.1406" fill="#ADD1B2" rx="11" ry="11" style="stroke:#A80036;stroke-width:1.0;"/><path d="M79.2188,97.7813 Q78.6406,98.0781 78,98.2188 Q77.3594,98.375 76.6563,98.375 Q74.1563,98.375 72.8281,96.7344 Q71.5156,95.0781 71.5156,91.9531 Q71.5156,88.8281 72.8281,87.1719 Q74.1563,85.5156 76.6563,85.5156 Q77.3594,85.5156 78,85.6719 Q78.6563,85.8281 79.2188,86.125 L79.2188,88.8438 Q78.5938,88.2656 78,88 Q77.4063,87.7188 76.7813,87.7188 Q75.4375,87.7188 74.75,88.7969 Q74.0625,89.8594 74.0625,91.9531 Q74.0625,94.0469 74.75,95.125 Q75.4375,96.1875 76.7813,96.1875 Q77.4063,96.1875 78,95.9219 Q78.5938,95.6406 79.2188,95.0625 L79.2188,97.7813 Z " fill="#000000"/><text fill="#000000" font-family="sans-serif" font-size="12" lengthAdjust="spacing" textLength="42" x="96.75" y="96.2949">Airport</text><line style="stroke:#A80036;stroke-width:1.5;" x1="8" x2="195" y1="108.1406" y2="108.1406"/><rect fill="none" height="6" style="stroke:#C82930;stroke-width:1.0;" width="6" x="15" y="116.1406"/><text fill="#000000" font-family="sans-serif" font-size="11" lengthAdjust="spacing" textLength="36" x="27" y="122.3511">id : int</text><rect fill="none" height="6" style="stroke:#C82930;stroke-width:1.0;" width="6" x="15" y="128.9453"/><text fill="#000000" font-family="sans-serif" font-size="11" lengthAdjust="spacing" textLength="77" x="27" y="135.1558">name : string</text><line style="stroke:#A80036;stroke-width:1.5;" x1="8" x2="195" y1="141.75" y2="141.75"/><ellipse cx="18" cy="152.75" fill="#84BE84" rx="3" ry="3" style="stroke:#038048;stroke-width:1.0;"/><text fill="#000000" font-family="sans-serif" font-size="11" lengthAdjust="spacing" textLength="62" x="27" y="155.9604">getId() : int</text><ellipse cx="18" cy="165.5547" fill="#84BE84" rx="3" ry="3" style="stroke:#038048;stroke-width:1.0;"/><text fill="#000000" font-family="sans-serif" font-size="11" lengthAdjust="spacing" textLength="99" x="27" y="168.7651">setId(int id) : void</text><ellipse cx="18" cy="178.3594" fill="#84BE84" rx="3" ry="3" style="stroke:#038048;stroke-width:1.0;"/><text fill="#000000" font-family="sans-serif" font-size="11" lengthAdjust="spacing" textLength="104" x="27" y="181.5698">getName() : string</text><ellipse cx="18" cy="191.1641" fill="#84BE84" rx="3" ry="3" style="stroke:#038048;stroke-width:1.0;"/><text fill="#000000" font-family="sans-serif" font-size="11" lengthAdjust="spacing" textLength="163" x="27" y="194.3745">setName(string name) : void</text><!--MD5=[29a2f04f72d5d666178ac7af56ef55cc]
class Airline--><rect codeLine="14" fill="#FEFECE" filter="url(#fpsk5dollqhbf)" height="86.4141" id="Airline" style="stroke:#A80036;stroke-width:1.5;" width="125" x="231" y="95.6406"/><ellipse cx="270.75" cy="111.6406" fill="#ADD1B2" rx="11" ry="11" style="stroke:#A80036;stroke-width:1.0;"/><path d="M273.7188,117.2813 Q273.1406,117.5781 272.5,117.7188 Q271.8594,117.875 271.1563,117.875 Q268.6563,117.875 267.3281,116.2344 Q266.0156,114.5781 266.0156,111.4531 Q266.0156,108.3281 267.3281,106.6719 Q268.6563,105.0156 271.1563,105.0156 Q271.8594,105.0156 272.5,105.1719 Q273.1563,105.3281 273.7188,105.625 L273.7188,108.3438 Q273.0938,107.7656 272.5,107.5 Q271.9063,107.2188 271.2813,107.2188 Q269.9375,107.2188 269.25,108.2969 Q268.5625,109.3594 268.5625,111.4531 Q268.5625,113.5469 269.25,114.625 Q269.9375,115.6875 271.2813,115.6875 Q271.9063,115.6875 272.5,115.4219 Q273.0938,115.1406 273.7188,114.5625 L273.7188,117.2813 Z " fill="#000000"/><text fill="#000000" font-family="sans-serif" font-size="12" lengthAdjust="spacing" textLength="38" x="290.25" y="115.7949">Airline</text><line style="stroke:#A80036;stroke-width:1.5;" x1="232" x2="355" y1="127.6406" y2="127.6406"/><rect fill="none" height="6" style="stroke:#C82930;stroke-width:1.0;" width="6" x="239" y="135.6406"/><text fill="#000000" font-family="sans-serif" font-size="11" lengthAdjust="spacing" textLength="36" x="251" y="141.8511">id : int</text><line style="stroke:#A80036;stroke-width:1.5;" x1="232" x2="355" y1="148.4453" y2="148.4453"/><ellipse cx="242" cy="159.4453" fill="#84BE84" rx="3" ry="3" style="stroke:#038048;stroke-width:1.0;"/><text fill="#000000" font-family="sans-serif" font-size="11" lengthAdjust="spacing" textLength="62" x="251" y="162.6558">getId() : int</text><ellipse cx="242" cy="172.25" fill="#84BE84" rx="3" ry="3" style="stroke:#038048;stroke-width:1.0;"/><text fill="#000000" font-family="sans-serif" font-size="11" lengthAdjust="spacing" textLength="99" x="251" y="175.4604">setId(int id) : void</text><!--MD5=[10813612642ae27aa5ff8d66c0f223e4]
class Plane--><rect codeLine="20" fill="#FEFECE" filter="url(#fpsk5dollqhbf)" height="86.4141" id="Plane" style="stroke:#A80036;stroke-width:1.5;" width="183" x="175" y="318.6406"/><ellipse cx="244.75" cy="334.6406" fill="#ADD1B2" rx="11" ry="11" style="stroke:#A80036;stroke-width:1.0;"/><path d="M247.7188,340.2813 Q247.1406,340.5781 246.5,340.7188 Q245.8594,340.875 245.1563,340.875 Q242.6563,340.875 241.3281,339.2344 Q240.0156,337.5781 240.0156,334.4531 Q240.0156,331.3281 241.3281,329.6719 Q242.6563,328.0156 245.1563,328.0156 Q245.8594,328.0156 246.5,328.1719 Q247.1563,328.3281 247.7188,328.625 L247.7188,331.3438 Q247.0938,330.7656 246.5,330.5 Q245.9063,330.2188 245.2813,330.2188 Q243.9375,330.2188 243.25,331.2969 Q242.5625,332.3594 242.5625,334.4531 Q242.5625,336.5469 243.25,337.625 Q243.9375,338.6875 245.2813,338.6875 Q245.9063,338.6875 246.5,338.4219 Q247.0938,338.1406 247.7188,337.5625 L247.7188,340.2813 Z " fill="#000000"/><text fill="#000000" font-family="sans-serif" font-size="12" lengthAdjust="spacing" textLength="35" x="265.25" y="338.7949">Plane</text><line style="stroke:#A80036;stroke-width:1.5;" x1="176" x2="357" y1="350.6406" y2="350.6406"/><rect fill="none" height="6" style="stroke:#C82930;stroke-width:1.0;" width="6" x="183" y="358.6406"/><text fill="#000000" font-family="sans-serif" font-size="11" lengthAdjust="spacing" textLength="74" x="195" y="364.8511">state : string</text><line style="stroke:#A80036;stroke-width:1.5;" x1="176" x2="357" y1="371.4453" y2="371.4453"/><ellipse cx="186" cy="382.4453" fill="#84BE84" rx="3" ry="3" style="stroke:#038048;stroke-width:1.0;"/><text fill="#000000" font-family="sans-serif" font-size="11" lengthAdjust="spacing" textLength="101" x="195" y="385.6558">getState() : string</text><ellipse cx="186" cy="395.25" fill="#84BE84" rx="3" ry="3" style="stroke:#038048;stroke-width:1.0;"/><text fill="#000000" font-family="sans-serif" font-size="11" lengthAdjust="spacing" textLength="157" x="195" y="398.4604">setState(string state) : void</text><!--MD5=[c414d4b6eeb4ba1b6b8d1336fa7f4252]
class Airbus--><rect codeLine="26" fill="#FEFECE" filter="url(#fpsk5dollqhbf)" height="48" id="Airbus" style="stroke:#A80036;stroke-width:1.5;" width="71" x="177" y="464.6406"/><ellipse cx="192" cy="480.6406" fill="#ADD1B2" rx="11" ry="11" style="stroke:#A80036;stroke-width:1.0;"/><path d="M194.9688,486.2813 Q194.3906,486.5781 193.75,486.7188 Q193.1094,486.875 192.4063,486.875 Q189.9063,486.875 188.5781,485.2344 Q187.2656,483.5781 187.2656,480.4531 Q187.2656,477.3281 188.5781,475.6719 Q189.9063,474.0156 192.4063,474.0156 Q193.1094,474.0156 193.75,474.1719 Q194.4063,474.3281 194.9688,474.625 L194.9688,477.3438 Q194.3438,476.7656 193.75,476.5 Q193.1563,476.2188 192.5313,476.2188 Q191.1875,476.2188 190.5,477.2969 Q189.8125,478.3594 189.8125,480.4531 Q189.8125,482.5469 190.5,483.625 Q191.1875,484.6875 192.5313,484.6875 Q193.1563,484.6875 193.75,484.4219 Q194.3438,484.1406 194.9688,483.5625 L194.9688,486.2813 Z " fill="#000000"/><text fill="#000000" font-family="sans-serif" font-size="12" lengthAdjust="spacing" textLength="39" x="206" y="484.7949">Airbus</text><line style="stroke:#A80036;stroke-width:1.5;" x1="178" x2="247" y1="496.6406" y2="496.6406"/><line style="stroke:#A80036;stroke-width:1.5;" x1="178" x2="247" y1="504.6406" y2="504.6406"/><!--MD5=[308c85158ef95647680632896ffea5ec]
class Aircraft--><rect codeLine="30" fill="#FEFECE" filter="url(#fpsk5dollqhbf)" height="48" id="Aircraft" style="stroke:#A80036;stroke-width:1.5;" width="77" x="283" y="464.6406"/><ellipse cx="298" cy="480.6406" fill="#ADD1B2" rx="11" ry="11" style="stroke:#A80036;stroke-width:1.0;"/><path d="M300.9688,486.2813 Q300.3906,486.5781 299.75,486.7188 Q299.1094,486.875 298.4063,486.875 Q295.9063,486.875 294.5781,485.2344 Q293.2656,483.5781 293.2656,480.4531 Q293.2656,477.3281 294.5781,475.6719 Q295.9063,474.0156 298.4063,474.0156 Q299.1094,474.0156 299.75,474.1719 Q300.4063,474.3281 300.9688,474.625 L300.9688,477.3438 Q300.3438,476.7656 299.75,476.5 Q299.1563,476.2188 298.5313,476.2188 Q297.1875,476.2188 296.5,477.2969 Q295.8125,478.3594 295.8125,480.4531 Q295.8125,482.5469 296.5,483.625 Q297.1875,484.6875 298.5313,484.6875 Q299.1563,484.6875 299.75,484.4219 Q300.3438,484.1406 300.9688,483.5625 L300.9688,486.2813 Z " fill="#000000"/><text fill="#000000" font-family="sans-serif" font-size="12" lengthAdjust="spacing" textLength="45" x="312" y="484.7949">Aircraft</text><line style="stroke:#A80036;stroke-width:1.5;" x1="284" x2="359" y1="496.6406" y2="496.6406"/><line style="stroke:#A80036;stroke-width:1.5;" x1="284" x2="359" y1="504.6406" y2="504.6406"/><!--MD5=[bd6e5d4dd3d7814cbdc3148d3ed1ec4b]
class Flight--><rect codeLine="34" fill="#FEFECE" filter="url(#fpsk5dollqhbf)" height="240.0703" id="Flight" style="stroke:#A80036;stroke-width:1.5;" width="253" x="391" y="18.6406"/><ellipse cx="496.25" cy="34.6406" fill="#ADD1B2" rx="11" ry="11" style="stroke:#A80036;stroke-width:1.0;"/><path d="M499.2188,40.2813 Q498.6406,40.5781 498,40.7188 Q497.3594,40.875 496.6563,40.875 Q494.1563,40.875 492.8281,39.2344 Q491.5156,37.5781 491.5156,34.4531 Q491.5156,31.3281 492.8281,29.6719 Q494.1563,28.0156 496.6563,28.0156 Q497.3594,28.0156 498,28.1719 Q498.6563,28.3281 499.2188,28.625 L499.2188,31.3438 Q498.5938,30.7656 498,30.5 Q497.4063,30.2188 496.7813,30.2188 Q495.4375,30.2188 494.75,31.2969 Q494.0625,32.3594 494.0625,34.4531 Q494.0625,36.5469 494.75,37.625 Q495.4375,38.6875 496.7813,38.6875 Q497.4063,38.6875 498,38.4219 Q498.5938,38.1406 499.2188,37.5625 L499.2188,40.2813 Z " fill="#000000"/><text fill="#000000" font-family="sans-serif" font-size="12" lengthAdjust="spacing" textLength="34" x="516.75" y="38.7949">Flight</text><line style="stroke:#A80036;stroke-width:1.5;" x1="392" x2="643" y1="50.6406" y2="50.6406"/><rect fill="none" height="6" style="stroke:#C82930;stroke-width:1.0;" width="6" x="399" y="58.6406"/><text fill="#000000" font-family="sans-serif" font-size="11" lengthAdjust="spacing" textLength="36" x="411" y="64.8511">id : int</text><rect fill="none" height="6" style="stroke:#C82930;stroke-width:1.0;" width="6" x="399" y="71.4453"/><text fill="#000000" font-family="sans-serif" font-size="11" lengthAdjust="spacing" textLength="123" x="411" y="77.6558">datetime : timestamp</text><rect fill="none" height="6" style="stroke:#C82930;stroke-width:1.0;" width="6" x="399" y="84.25"/><text fill="#000000" font-family="sans-serif" font-size="11" lengthAdjust="spacing" textLength="101" x="411" y="90.4604">departure : string</text><rect fill="none" height="6" style="stroke:#C82930;stroke-width:1.0;" width="6" x="399" y="97.0547"/><text fill="#000000" font-family="sans-serif" font-size="11" lengthAdjust="spacing" textLength="81" x="411" y="103.2651">arrival : string</text><rect fill="none" height="6" style="stroke:#C82930;stroke-width:1.0;" width="6" x="399" y="109.8594"/><text fill="#000000" font-family="sans-serif" font-size="11" lengthAdjust="spacing" textLength="82" x="411" y="116.0698">flightTime : int</text><line style="stroke:#A80036;stroke-width:1.5;" x1="392" x2="643" y1="122.6641" y2="122.6641"/><ellipse cx="402" cy="133.6641" fill="#84BE84" rx="3" ry="3" style="stroke:#038048;stroke-width:1.0;"/><text fill="#000000" font-family="sans-serif" font-size="11" lengthAdjust="spacing" textLength="62" x="411" y="136.8745">getId() : int</text><ellipse cx="402" cy="146.4688" fill="#84BE84" rx="3" ry="3" style="stroke:#038048;stroke-width:1.0;"/><text fill="#000000" font-family="sans-serif" font-size="11" lengthAdjust="spacing" textLength="99" x="411" y="149.6792">setId(int id) : void</text><ellipse cx="402" cy="159.2734" fill="#84BE84" rx="3" ry="3" style="stroke:#038048;stroke-width:1.0;"/><text fill="#000000" font-family="sans-serif" font-size="11" lengthAdjust="spacing" textLength="150" x="411" y="162.4839">getDatetime() : timestamp</text><ellipse cx="402" cy="172.0781" fill="#84BE84" rx="3" ry="3" style="stroke:#038048;stroke-width:1.0;"/><text fill="#000000" font-family="sans-serif" font-size="11" lengthAdjust="spacing" textLength="227" x="411" y="175.2886">setDatetime(timestamp datetime) : void</text><ellipse cx="402" cy="184.8828" fill="#84BE84" rx="3" ry="3" style="stroke:#038048;stroke-width:1.0;"/><text fill="#000000" font-family="sans-serif" font-size="11" lengthAdjust="spacing" textLength="128" x="411" y="188.0933">getDeparture() : string</text><ellipse cx="402" cy="197.6875" fill="#84BE84" rx="3" ry="3" style="stroke:#038048;stroke-width:1.0;"/><text fill="#000000" font-family="sans-serif" font-size="11" lengthAdjust="spacing" textLength="211" x="411" y="200.8979">setDeparture(string departure) : void</text><ellipse cx="402" cy="210.4922" fill="#84BE84" rx="3" ry="3" style="stroke:#038048;stroke-width:1.0;"/><text fill="#000000" font-family="sans-serif" font-size="11" lengthAdjust="spacing" textLength="107" x="411" y="213.7026">getArrival() : string</text><ellipse cx="402" cy="223.2969" fill="#84BE84" rx="3" ry="3" style="stroke:#038048;stroke-width:1.0;"/><text fill="#000000" font-family="sans-serif" font-size="11" lengthAdjust="spacing" textLength="170" x="411" y="226.5073">setArrival(string arrival) : void</text><ellipse cx="402" cy="236.1016" fill="#84BE84" rx="3" ry="3" style="stroke:#038048;stroke-width:1.0;"/><text fill="#000000" font-family="sans-serif" font-size="11" lengthAdjust="spacing" textLength="110" x="411" y="239.312">getFlightTime() : int</text><ellipse cx="402" cy="248.9063" fill="#84BE84" rx="3" ry="3" style="stroke:#038048;stroke-width:1.0;"/><text fill="#000000" font-family="sans-serif" font-size="11" lengthAdjust="spacing" textLength="193" x="411" y="252.1167">setFlightTime(int flightTime) : void</text><!--MD5=[be584b6e89b0d359e193eb60bf13082c]
class Pilot--><rect codeLine="52" fill="#FEFECE" filter="url(#fpsk5dollqhbf)" height="86.4141" id="Pilot" style="stroke:#A80036;stroke-width:1.5;" width="248" x="393.5" y="318.6406"/><ellipse cx="499.75" cy="334.6406" fill="#ADD1B2" rx="11" ry="11" style="stroke:#A80036;stroke-width:1.0;"/><path d="M502.7188,340.2813 Q502.1406,340.5781 501.5,340.7188 Q500.8594,340.875 500.1563,340.875 Q497.6563,340.875 496.3281,339.2344 Q495.0156,337.5781 495.0156,334.4531 Q495.0156,331.3281 496.3281,329.6719 Q497.6563,328.0156 500.1563,328.0156 Q500.8594,328.0156 501.5,328.1719 Q502.1563,328.3281 502.7188,328.625 L502.7188,331.3438 Q502.0938,330.7656 501.5,330.5 Q500.9063,330.2188 500.2813,330.2188 Q498.9375,330.2188 498.25,331.2969 Q497.5625,332.3594 497.5625,334.4531 Q497.5625,336.5469 498.25,337.625 Q498.9375,338.6875 500.2813,338.6875 Q500.9063,338.6875 501.5,338.4219 Q502.0938,338.1406 502.7188,337.5625 L502.7188,340.2813 Z " fill="#000000"/><text fill="#000000" font-family="sans-serif" font-size="12" lengthAdjust="spacing" textLength="27" x="520.25" y="338.7949">Pilot</text><line style="stroke:#A80036;stroke-width:1.5;" x1="394.5" x2="640.5" y1="350.6406" y2="350.6406"/><rect fill="none" height="6" style="stroke:#C82930;stroke-width:1.0;" width="6" x="401.5" y="358.6406"/><text fill="#000000" font-family="sans-serif" font-size="11" lengthAdjust="spacing" textLength="107" x="413.5" y="364.8511">experience : string</text><line style="stroke:#A80036;stroke-width:1.5;" x1="394.5" x2="640.5" y1="371.4453" y2="371.4453"/><ellipse cx="404.5" cy="382.4453" fill="#84BE84" rx="3" ry="3" style="stroke:#038048;stroke-width:1.0;"/><text fill="#000000" font-family="sans-serif" font-size="11" lengthAdjust="spacing" textLength="133" x="413.5" y="385.6558">getExperience() : string</text><ellipse cx="404.5" cy="395.25" fill="#84BE84" rx="3" ry="3" style="stroke:#038048;stroke-width:1.0;"/><text fill="#000000" font-family="sans-serif" font-size="11" lengthAdjust="spacing" textLength="222" x="413.5" y="398.4604">setExperience(string experience) : void</text><!--MD5=[0af9904e5fe232649e44b71305302b17]
link Airport to Airline--><path codeLine="58" d="M204.47,138.6406 C210.52,138.6406 216.58,138.6406 222.64,138.6406 " fill="none" id="Airport-Airline" style="stroke:#A80036;stroke-width:1.0;"/><line style="stroke:#A80036;stroke-width:1.0;" x1="222.9" x2="230.9" y1="138.6406" y2="130.6406"/><line style="stroke:#A80036;stroke-width:1.0;" x1="222.9" x2="230.9" y1="138.6406" y2="146.6406"/><line style="stroke:#A80036;stroke-width:1.0;" x1="222.9" x2="230.9" y1="138.6406" y2="138.6406"/><line style="stroke:#A80036;stroke-width:1.0;" x1="204.38" x2="196.38" y1="138.6263" y2="146.6406"/><line style="stroke:#A80036;stroke-width:1.0;" x1="204.38" x2="196.38" y1="138.6263" y2="130.6406"/><line style="stroke:#A80036;stroke-width:1.0;" x1="204.38" x2="196.38" y1="138.6263" y2="138.6406"/><!--MD5=[b4bd411d17c11e8dde26c1bc50c3fcc9]
link Airline to Flight--><path codeLine="59" d="M364.19,138.6406 C370.28,138.6406 376.36,138.6406 382.45,138.6406 " fill="none" id="Airline-Flight" style="stroke:#A80036;stroke-width:1.0;"/><line style="stroke:#A80036;stroke-width:1.0;" x1="382.75" x2="390.75" y1="138.6406" y2="130.6406"/><line style="stroke:#A80036;stroke-width:1.0;" x1="382.75" x2="390.75" y1="138.6406" y2="146.6406"/><line style="stroke:#A80036;stroke-width:1.0;" x1="382.75" x2="390.75" y1="138.6406" y2="138.6406"/><line style="stroke:#A80036;stroke-width:1.0;" x1="364.06" x2="356.06" y1="138.6406" y2="146.6406"/><line style="stroke:#A80036;stroke-width:1.0;" x1="364.06" x2="356.06" y1="138.6406" y2="130.6406"/><line style="stroke:#A80036;stroke-width:1.0;" x1="364.06" x2="356.06" y1="138.6406" y2="138.6406"/><!--MD5=[94d1cc20d763ee647f02621b39cfd46f]
link Airline to Plane--><path codeLine="60" d="M288.36,181.7306 C283.89,218.3206 277.4,271.4306 272.65,310.2706 " fill="none" id="Airline-to-Plane" style="stroke:#A80036;stroke-width:1.0;"/><line style="stroke:#A80036;stroke-width:1.0;" x1="272.6412" x2="279.6108" y1="310.3898" y2="318.3306"/><line style="stroke:#A80036;stroke-width:1.0;" x1="272.6412" x2="263.7292" y1="310.3898" y2="318.3306"/><line style="stroke:#A80036;stroke-width:1.0;" x1="272.6412" x2="271.67" y1="310.3898" y2="318.3306"/><!--MD5=[bf500c81ac208816d380b865c770c572]
reverse link Plane to Airbus--><path codeLine="61" d="M240.13,423.6706 C233.88,438.1506 227.58,452.7306 222.58,464.3106 " fill="none" id="Plane-backto-Airbus" style="stroke:#A80036;stroke-width:1.0;"/><polygon fill="none" points="233.86,420.5406,248.22,404.9606,246.71,426.1006,233.86,420.5406" style="stroke:#A80036;stroke-width:1.0;"/><!--MD5=[aa042f4687ac41d5f9b18e081f1c14cb]
reverse link Plane to Aircraft--><path codeLine="62" d="M293.35,423.6706 C299.72,438.1506 306.14,452.7306 311.24,464.3106 " fill="none" id="Plane-backto-Aircraft" style="stroke:#A80036;stroke-width:1.0;"/><polygon fill="none" points="286.77,426.0806,285.12,404.9606,299.58,420.4506,286.77,426.0806" style="stroke:#A80036;stroke-width:1.0;"/><!--MD5=[199f362de48570432da663185e31aaec]
link Plane to Pilot--><path codeLine="63" d="M358.17,361.6406 C367.15,361.6406 376.12,361.6406 385.1,361.6406 " fill="none" id="Plane-to-Pilot" style="stroke:#A80036;stroke-width:1.0;"/><line style="stroke:#A80036;stroke-width:1.0;" x1="385.34" x2="393.34" y1="361.6406" y2="355.6406"/><line style="stroke:#A80036;stroke-width:1.0;" x1="385.34" x2="393.34" y1="361.6406" y2="367.6406"/><line style="stroke:#A80036;stroke-width:1.0;" x1="385.34" x2="393.34" y1="361.6406" y2="361.6406"/><line style="stroke:#A80036;stroke-width:1.0;" x1="383.34" x2="383.34" y1="357.6406" y2="365.6406"/><!--MD5=[f82361e92595ce6147dc935c97fcea2e]
link Airline to Pilot--><path codeLine="64" d="M316.64,181.7506 C331.09,205.8506 351.16,235.7506 373.5,258.6406 C393.36,279.0006 417.76,298.0006 440.78,313.9606 " fill="none" id="Airline-to-Pilot" style="stroke:#A80036;stroke-width:1.0;"/><line style="stroke:#A80036;stroke-width:1.0;" x1="440.9635" x2="452.0862" y1="314.0645" y2="318.5906"/><line style="stroke:#A80036;stroke-width:1.0;" x1="440.9635" x2="443.0338" y1="314.0645" y2="318.5906"/><line style="stroke:#A80036;stroke-width:1.0;" x1="440.9635" x2="447.56" y1="314.0645" y2="318.5906"/><!--MD5=[57a7e77cc22c8d0f9b8c1c79256fc596]
link Flight to Pilot--><path codeLine="65" d="M504.79,258.8706 C504.94,277.4406 505.57,295.6706 506.69,311.4606 " fill="none" id="Flight-to-Pilot" style="stroke:#A80036;stroke-width:1.0;"/><line style="stroke:#A80036;stroke-width:1.0;" x1="510.9081" x2="502.9321" y1="314.2327" y2="314.8526"/><line style="stroke:#A80036;stroke-width:1.0;" x1="510.6756" x2="502.6997" y1="311.2418" y2="311.8616"/><line style="stroke:#A80036;stroke-width:1.0;" x1="506.6102" x2="507.23" y1="310.5547" y2="318.5306"/><!--MD5=[57a7e77cc22c8d0f9b8c1c79256fc596]
link Flight to Pilot--><path codeLine="66" d="M530.96,258.8706 C530.8,277.4406 530.13,295.6706 528.95,311.4606 " fill="none" id="Flight-to-Pilot-1" style="stroke:#A80036;stroke-width:1.0;"/><line style="stroke:#A80036;stroke-width:1.0;" x1="532.6834" x2="524.7101" y1="314.8708" y2="314.2172"/><line style="stroke:#A80036;stroke-width:1.0;" x1="532.9285" x2="524.9552" y1="311.8808" y2="311.2272"/><line style="stroke:#A80036;stroke-width:1.0;" x1="529.0235" x2="528.37" y1="310.5574" y2="318.5306"/><!--MD5=[b9fe3bff3db5009f16ff234bb0d9ce0f]
@startuml
center header
Flight Management System
endheader

class Airport {
  -id : int
  -name : string
  +getId() : int
  +setId(int id) : void
  +getName() : string
  +setName(string name) : void
}

class Airline {
  -id : int
  +getId() : int
  +setId(int id) : void
}

class Plane {
  -state : string
  +getState() : string
  +setState(string state) : void
}

class Airbus {

}

class Aircraft {

}

class Flight {
  -id : int
  -datetime : timestamp
  -departure : string
  -arrival : string
  -flightTime : int
  +getId() : int
  +setId(int id) : void
  +getDatetime() : timestamp
  +setDatetime(timestamp datetime) : void
  +getDeparture() : string
  +setDeparture(string departure) : void
  +getArrival() : string
  +setArrival(string arrival) : void
  +getFlightTime() : int
  +setFlightTime(int flightTime) : void
}

class Pilot {
  -experience : string
  +getExperience() : string
  +setExperience(string experience) : void
}

Airport }-{ Airline
Airline }-{ Flight
Airline - -{ Plane
Plane <|- - Airbus
Plane <|- - Aircraft
Plane -|{ Pilot
Airline - -{ Pilot
Flight - -|| Pilot
Flight - -|| Pilot
@enduml

PlantUML version 1.2021.16(Wed Dec 08 17:25:22 UTC 2021)
(GPL source distribution)
Java Runtime: OpenJDK Runtime Environment
JVM: OpenJDK 64-Bit Server VM
Default Encoding: UTF-8
Language: en
Country: US
--></g></svg>