<?xml version="1.0" encoding="UTF-8" standalone="no"?><svg xmlns="http://www.w3.org/2000/svg" xmlns:xlink="http://www.w3.org/1999/xlink" contentScriptType="application/ecmascript" contentStyleType="text/css" height="699px" preserveAspectRatio="none" style="width:732px;height:699px;background:#FFFFFF;" version="1.1" viewBox="0 0 732 699" width="732px" zoomAndPan="magnify"><defs><filter height="300%" id="fj2bjk4nfejb" width="300%" x="-1" y="-1"><feGaussianBlur result="blurOut" stdDeviation="2.0"/><feColorMatrix in="blurOut" result="blurOut2" type="matrix" values="0 0 0 0 0 0 0 0 0 0 0 0 0 0 0 0 0 0 .4 0"/><feOffset dx="4.0" dy="4.0" in="blurOut2" result="blurOut3"/><feBlend in="SourceGraphic" in2="blurOut3" mode="normal"/></filter></defs><g><text fill="#888888" font-family="sans-serif" font-size="10" lengthAdjust="spacing" textLength="92" x="313.5" y="9.2822">Online Movie Store</text><!--MD5=[3fd616f346a44cd59a91eb10b19e157c]
class User--><rect codeLine="5" fill="#FEFECE" filter="url(#fj2bjk4nfejb)" height="124.8281" id="User" style="stroke:#A80036;stroke-width:1.5;" width="145" x="7" y="535.1406"/><ellipse cx="60.75" cy="551.1406" fill="#ADD1B2" rx="11" ry="11" style="stroke:#A80036;stroke-width:1.0;"/><path d="M63.7188,556.7813 Q63.1406,557.0781 62.5,557.2188 Q61.8594,557.375 61.1563,557.375 Q58.6563,557.375 57.3281,555.7344 Q56.0156,554.0781 56.0156,550.9531 Q56.0156,547.8281 57.3281,546.1719 Q58.6563,544.5156 61.1563,544.5156 Q61.8594,544.5156 62.5,544.6719 Q63.1563,544.8281 63.7188,545.125 L63.7188,547.8438 Q63.0938,547.2656 62.5,547 Q61.9063,546.7188 61.2813,546.7188 Q59.9375,546.7188 59.25,547.7969 Q58.5625,548.8594 58.5625,550.9531 Q58.5625,553.0469 59.25,554.125 Q59.9375,555.1875 61.2813,555.1875 Q61.9063,555.1875 62.5,554.9219 Q63.0938,554.6406 63.7188,554.0625 L63.7188,556.7813 Z " fill="#000000"/><text fill="#000000" font-family="sans-serif" font-size="12" lengthAdjust="spacing" textLength="29" x="81.25" y="555.2949">User</text><line style="stroke:#A80036;stroke-width:1.5;" x1="8" x2="151" y1="567.1406" y2="567.1406"/><rect fill="none" height="6" style="stroke:#C82930;stroke-width:1.0;" width="6" x="15" y="575.1406"/><text fill="#000000" font-family="sans-serif" font-size="11" lengthAdjust="spacing" textLength="55" x="27" y="581.3511">ip : string</text><rect fill="none" height="6" style="stroke:#C82930;stroke-width:1.0;" width="6" x="15" y="587.9453"/><text fill="#000000" font-family="sans-serif" font-size="11" lengthAdjust="spacing" textLength="92" x="27" y="594.1558">browser : string</text><rect fill="none" height="6" style="stroke:#C82930;stroke-width:1.0;" width="6" x="15" y="600.75"/><text fill="#000000" font-family="sans-serif" font-size="11" lengthAdjust="spacing" textLength="89" x="27" y="606.9604">location : string</text><line style="stroke:#A80036;stroke-width:1.5;" x1="8" x2="151" y1="613.5547" y2="613.5547"/><ellipse cx="18" cy="624.5547" fill="#84BE84" rx="3" ry="3" style="stroke:#038048;stroke-width:1.0;"/><text fill="#000000" font-family="sans-serif" font-size="11" lengthAdjust="spacing" textLength="81" x="27" y="627.7651">getIp() : string</text><ellipse cx="18" cy="637.3594" fill="#84BE84" rx="3" ry="3" style="stroke:#038048;stroke-width:1.0;"/><text fill="#000000" font-family="sans-serif" font-size="11" lengthAdjust="spacing" textLength="119" x="27" y="640.5698">getBrowser() : string</text><ellipse cx="18" cy="650.1641" fill="#84BE84" rx="3" ry="3" style="stroke:#038048;stroke-width:1.0;"/><text fill="#000000" font-family="sans-serif" font-size="11" lengthAdjust="spacing" textLength="118" x="27" y="653.3745">getLocation() : string</text><!--MD5=[422c5c4580dfecb1f8df4e9077a6cab6]
class Registered--><rect codeLine="14" fill="#FEFECE" filter="url(#fj2bjk4nfejb)" height="176.0469" id="Registered" style="stroke:#A80036;stroke-width:1.5;" width="236" x="187.5" y="509.6406"/><ellipse cx="267.25" cy="525.6406" fill="#ADD1B2" rx="11" ry="11" style="stroke:#A80036;stroke-width:1.0;"/><path d="M270.2188,531.2813 Q269.6406,531.5781 269,531.7188 Q268.3594,531.875 267.6563,531.875 Q265.1563,531.875 263.8281,530.2344 Q262.5156,528.5781 262.5156,525.4531 Q262.5156,522.3281 263.8281,520.6719 Q265.1563,519.0156 267.6563,519.0156 Q268.3594,519.0156 269,519.1719 Q269.6563,519.3281 270.2188,519.625 L270.2188,522.3438 Q269.5938,521.7656 269,521.5 Q268.4063,521.2188 267.7813,521.2188 Q266.4375,521.2188 265.75,522.2969 Q265.0625,523.3594 265.0625,525.4531 Q265.0625,527.5469 265.75,528.625 Q266.4375,529.6875 267.7813,529.6875 Q268.4063,529.6875 269,529.4219 Q269.5938,529.1406 270.2188,528.5625 L270.2188,531.2813 Z " fill="#000000"/><text fill="#000000" font-family="sans-serif" font-size="12" lengthAdjust="spacing" textLength="68" x="287.75" y="529.7949">Registered</text><line style="stroke:#A80036;stroke-width:1.5;" x1="188.5" x2="422.5" y1="541.6406" y2="541.6406"/><rect fill="none" height="6" style="stroke:#C82930;stroke-width:1.0;" width="6" x="195.5" y="549.6406"/><text fill="#000000" font-family="sans-serif" font-size="11" lengthAdjust="spacing" textLength="36" x="207.5" y="555.8511">id : int</text><rect fill="none" height="6" style="stroke:#C82930;stroke-width:1.0;" width="6" x="195.5" y="562.4453"/><text fill="#000000" font-family="sans-serif" font-size="11" lengthAdjust="spacing" textLength="107" x="207.5" y="568.6558">username  : string</text><rect fill="none" height="6" style="stroke:#C82930;stroke-width:1.0;" width="6" x="195.5" y="575.25"/><text fill="#000000" font-family="sans-serif" font-size="11" lengthAdjust="spacing" textLength="101" x="207.5" y="581.4604">password : string</text><line style="stroke:#A80036;stroke-width:1.5;" x1="188.5" x2="422.5" y1="588.0547" y2="588.0547"/><ellipse cx="198.5" cy="599.0547" fill="#84BE84" rx="3" ry="3" style="stroke:#038048;stroke-width:1.0;"/><text fill="#000000" font-family="sans-serif" font-size="11" lengthAdjust="spacing" textLength="58" x="207.5" y="602.2651">getId(): int</text><ellipse cx="198.5" cy="611.8594" fill="#84BE84" rx="3" ry="3" style="stroke:#038048;stroke-width:1.0;"/><text fill="#000000" font-family="sans-serif" font-size="11" lengthAdjust="spacing" textLength="130" x="207.5" y="615.0698">getUsername() : string</text><ellipse cx="198.5" cy="624.6641" fill="#84BE84" rx="3" ry="3" style="stroke:#038048;stroke-width:1.0;"/><text fill="#000000" font-family="sans-serif" font-size="11" lengthAdjust="spacing" textLength="189" x="207.5" y="627.8745">setUsername(string name) : void</text><ellipse cx="198.5" cy="637.4688" fill="#84BE84" rx="3" ry="3" style="stroke:#038048;stroke-width:1.0;"/><text fill="#000000" font-family="sans-serif" font-size="11" lengthAdjust="spacing" textLength="127" x="207.5" y="640.6792">getPassword() : string</text><ellipse cx="198.5" cy="650.2734" fill="#84BE84" rx="3" ry="3" style="stroke:#038048;stroke-width:1.0;"/><text fill="#000000" font-family="sans-serif" font-size="11" lengthAdjust="spacing" textLength="210" x="207.5" y="653.4839">setPassword(string password) : void</text><ellipse cx="198.5" cy="663.0781" fill="#84BE84" rx="3" ry="3" style="stroke:#038048;stroke-width:1.0;"/><text fill="#000000" font-family="sans-serif" font-size="11" lengthAdjust="spacing" textLength="92" x="207.5" y="666.2886">login() : boolean</text><ellipse cx="198.5" cy="675.8828" fill="#84BE84" rx="3" ry="3" style="stroke:#038048;stroke-width:1.0;"/><text fill="#000000" font-family="sans-serif" font-size="11" lengthAdjust="spacing" textLength="100" x="207.5" y="679.0933">logout() : boolean</text><!--MD5=[4a7956b31a8e98f2c19ee52c969c2c46]
class Subscriber--><rect codeLine="27" fill="#FEFECE" filter="url(#fj2bjk4nfejb)" height="124.8281" id="Subscriber" style="stroke:#A80036;stroke-width:1.5;" width="259" x="459" y="535.1406"/><ellipse cx="550.75" cy="551.1406" fill="#ADD1B2" rx="11" ry="11" style="stroke:#A80036;stroke-width:1.0;"/><path d="M553.7188,556.7813 Q553.1406,557.0781 552.5,557.2188 Q551.8594,557.375 551.1563,557.375 Q548.6563,557.375 547.3281,555.7344 Q546.0156,554.0781 546.0156,550.9531 Q546.0156,547.8281 547.3281,546.1719 Q548.6563,544.5156 551.1563,544.5156 Q551.8594,544.5156 552.5,544.6719 Q553.1563,544.8281 553.7188,545.125 L553.7188,547.8438 Q553.0938,547.2656 552.5,547 Q551.9063,546.7188 551.2813,546.7188 Q549.9375,546.7188 549.25,547.7969 Q548.5625,548.8594 548.5625,550.9531 Q548.5625,553.0469 549.25,554.125 Q549.9375,555.1875 551.2813,555.1875 Q551.9063,555.1875 552.5,554.9219 Q553.0938,554.6406 553.7188,554.0625 L553.7188,556.7813 Z " fill="#000000"/><text fill="#000000" font-family="sans-serif" font-size="12" lengthAdjust="spacing" textLength="67" x="571.25" y="555.2949">Subscriber</text><line style="stroke:#A80036;stroke-width:1.5;" x1="460" x2="717" y1="567.1406" y2="567.1406"/><rect fill="none" height="6" style="stroke:#C82930;stroke-width:1.0;" width="6" x="467" y="575.1406"/><text fill="#000000" font-family="sans-serif" font-size="11" lengthAdjust="spacing" textLength="126" x="479" y="581.3511">startDate : timestamp</text><rect fill="none" height="6" style="stroke:#C82930;stroke-width:1.0;" width="6" x="467" y="587.9453"/><text fill="#000000" font-family="sans-serif" font-size="11" lengthAdjust="spacing" textLength="120" x="479" y="594.1558">endDate : timestamp</text><line style="stroke:#A80036;stroke-width:1.5;" x1="460" x2="717" y1="600.75" y2="600.75"/><ellipse cx="470" cy="611.75" fill="#84BE84" rx="3" ry="3" style="stroke:#038048;stroke-width:1.0;"/><text fill="#000000" font-family="sans-serif" font-size="11" lengthAdjust="spacing" textLength="153" x="479" y="614.9604">getStartDate() : timestamp</text><ellipse cx="470" cy="624.5547" fill="#84BE84" rx="3" ry="3" style="stroke:#038048;stroke-width:1.0;"/><text fill="#000000" font-family="sans-serif" font-size="11" lengthAdjust="spacing" textLength="233" x="479" y="627.7651">setStartDate(timestamp startDate) : void</text><ellipse cx="470" cy="637.3594" fill="#84BE84" rx="3" ry="3" style="stroke:#038048;stroke-width:1.0;"/><text fill="#000000" font-family="sans-serif" font-size="11" lengthAdjust="spacing" textLength="146" x="479" y="640.5698">getEndDate() : timestamp</text><ellipse cx="470" cy="650.1641" fill="#84BE84" rx="3" ry="3" style="stroke:#038048;stroke-width:1.0;"/><text fill="#000000" font-family="sans-serif" font-size="11" lengthAdjust="spacing" textLength="220" x="479" y="653.3745">setEndDate(timestamp endDate) : void</text><!--MD5=[e69084ab16b022bdbef99762ea85e9d6]
class Movie--><rect codeLine="36" fill="#FEFECE" filter="url(#fj2bjk4nfejb)" height="163.2422" id="Movie" style="stroke:#A80036;stroke-width:1.5;" width="213" x="86" y="18.6406"/><ellipse cx="170.75" cy="34.6406" fill="#ADD1B2" rx="11" ry="11" style="stroke:#A80036;stroke-width:1.0;"/><path d="M173.7188,40.2813 Q173.1406,40.5781 172.5,40.7188 Q171.8594,40.875 171.1563,40.875 Q168.6563,40.875 167.3281,39.2344 Q166.0156,37.5781 166.0156,34.4531 Q166.0156,31.3281 167.3281,29.6719 Q168.6563,28.0156 171.1563,28.0156 Q171.8594,28.0156 172.5,28.1719 Q173.1563,28.3281 173.7188,28.625 L173.7188,31.3438 Q173.0938,30.7656 172.5,30.5 Q171.9063,30.2188 171.2813,30.2188 Q169.9375,30.2188 169.25,31.2969 Q168.5625,32.3594 168.5625,34.4531 Q168.5625,36.5469 169.25,37.625 Q169.9375,38.6875 171.2813,38.6875 Q171.9063,38.6875 172.5,38.4219 Q173.0938,38.1406 173.7188,37.5625 L173.7188,40.2813 Z " fill="#000000"/><text fill="#000000" font-family="sans-serif" font-size="12" lengthAdjust="spacing" textLength="35" x="191.25" y="38.7949">Movie</text><line style="stroke:#A80036;stroke-width:1.5;" x1="87" x2="298" y1="50.6406" y2="50.6406"/><rect fill="none" height="6" style="stroke:#C82930;stroke-width:1.0;" width="6" x="94" y="58.6406"/><text fill="#000000" font-family="sans-serif" font-size="11" lengthAdjust="spacing" textLength="66" x="106" y="64.8511">title : string</text><rect fill="none" height="6" style="stroke:#C82930;stroke-width:1.0;" width="6" x="94" y="71.4453"/><text fill="#000000" font-family="sans-serif" font-size="11" lengthAdjust="spacing" textLength="73" x="106" y="77.6558">duration : int</text><rect fill="none" height="6" style="stroke:#C82930;stroke-width:1.0;" width="6" x="94" y="84.25"/><text fill="#000000" font-family="sans-serif" font-size="11" lengthAdjust="spacing" textLength="89" x="106" y="90.4604">director : string</text><line style="stroke:#A80036;stroke-width:1.5;" x1="87" x2="298" y1="97.0547" y2="97.0547"/><ellipse cx="97" cy="108.0547" fill="#84BE84" rx="3" ry="3" style="stroke:#038048;stroke-width:1.0;"/><text fill="#000000" font-family="sans-serif" font-size="11" lengthAdjust="spacing" textLength="95" x="106" y="111.2651">getTitle() : string</text><ellipse cx="97" cy="120.8594" fill="#84BE84" rx="3" ry="3" style="stroke:#038048;stroke-width:1.0;"/><text fill="#000000" font-family="sans-serif" font-size="11" lengthAdjust="spacing" textLength="143" x="106" y="124.0698">setTitle(string title) : void</text><ellipse cx="97" cy="133.6641" fill="#84BE84" rx="3" ry="3" style="stroke:#038048;stroke-width:1.0;"/><text fill="#000000" font-family="sans-serif" font-size="11" lengthAdjust="spacing" textLength="100" x="106" y="136.8745">getDuration() : int</text><ellipse cx="97" cy="146.4688" fill="#84BE84" rx="3" ry="3" style="stroke:#038048;stroke-width:1.0;"/><text fill="#000000" font-family="sans-serif" font-size="11" lengthAdjust="spacing" textLength="174" x="106" y="149.6792">setDuration(int duration) : void</text><ellipse cx="97" cy="159.2734" fill="#84BE84" rx="3" ry="3" style="stroke:#038048;stroke-width:1.0;"/><text fill="#000000" font-family="sans-serif" font-size="11" lengthAdjust="spacing" textLength="116" x="106" y="162.4839">getDirector() : string</text><ellipse cx="97" cy="172.0781" fill="#84BE84" rx="3" ry="3" style="stroke:#038048;stroke-width:1.0;"/><text fill="#000000" font-family="sans-serif" font-size="11" lengthAdjust="spacing" textLength="187" x="106" y="175.2886">setDirector(string director) : void</text><!--MD5=[fd7366e9f96236d9aa60dcc04f2b83e5]
class Content--><rect codeLine="48" fill="#FEFECE" filter="url(#fj2bjk4nfejb)" height="73.6094" id="Content" style="stroke:#A80036;stroke-width:1.5;" width="120" x="132.5" y="241.6406"/><ellipse cx="164.6" cy="257.6406" fill="#ADD1B2" rx="11" ry="11" style="stroke:#A80036;stroke-width:1.0;"/><path d="M167.5688,263.2813 Q166.9906,263.5781 166.35,263.7188 Q165.7094,263.875 165.0063,263.875 Q162.5063,263.875 161.1781,262.2344 Q159.8656,260.5781 159.8656,257.4531 Q159.8656,254.3281 161.1781,252.6719 Q162.5063,251.0156 165.0063,251.0156 Q165.7094,251.0156 166.35,251.1719 Q167.0063,251.3281 167.5688,251.625 L167.5688,254.3438 Q166.9438,253.7656 166.35,253.5 Q165.7563,253.2188 165.1313,253.2188 Q163.7875,253.2188 163.1,254.2969 Q162.4125,255.3594 162.4125,257.4531 Q162.4125,259.5469 163.1,260.625 Q163.7875,261.6875 165.1313,261.6875 Q165.7563,261.6875 166.35,261.4219 Q166.9438,261.1406 167.5688,260.5625 L167.5688,263.2813 Z " fill="#000000"/><text fill="#000000" font-family="sans-serif" font-size="12" lengthAdjust="spacing" textLength="50" x="182.4" y="261.7949">Content</text><line style="stroke:#A80036;stroke-width:1.5;" x1="133.5" x2="251.5" y1="273.6406" y2="273.6406"/><rect fill="none" height="6" style="stroke:#C82930;stroke-width:1.0;" width="6" x="140.5" y="281.6406"/><text fill="#000000" font-family="sans-serif" font-size="11" lengthAdjust="spacing" textLength="70" x="152.5" y="287.8511">movies : list</text><line style="stroke:#A80036;stroke-width:1.5;" x1="133.5" x2="251.5" y1="294.4453" y2="294.4453"/><ellipse cx="143.5" cy="305.4453" fill="#84BE84" rx="3" ry="3" style="stroke:#038048;stroke-width:1.0;"/><text fill="#000000" font-family="sans-serif" font-size="11" lengthAdjust="spacing" textLength="94" x="152.5" y="308.6558">getMovies() : list</text><!--MD5=[6014a823ed46ef75b518640a5a3f7256]
class RegisteredContent--><rect codeLine="53" fill="#FEFECE" filter="url(#fj2bjk4nfejb)" height="73.6094" id="RegisteredContent" style="stroke:#A80036;stroke-width:1.5;" width="167" x="222" y="375.6406"/><ellipse cx="244.65" cy="391.6406" fill="#ADD1B2" rx="11" ry="11" style="stroke:#A80036;stroke-width:1.0;"/><path d="M247.6188,397.2813 Q247.0406,397.5781 246.4,397.7188 Q245.7594,397.875 245.0563,397.875 Q242.5563,397.875 241.2281,396.2344 Q239.9156,394.5781 239.9156,391.4531 Q239.9156,388.3281 241.2281,386.6719 Q242.5563,385.0156 245.0563,385.0156 Q245.7594,385.0156 246.4,385.1719 Q247.0563,385.3281 247.6188,385.625 L247.6188,388.3438 Q246.9938,387.7656 246.4,387.5 Q245.8063,387.2188 245.1813,387.2188 Q243.8375,387.2188 243.15,388.2969 Q242.4625,389.3594 242.4625,391.4531 Q242.4625,393.5469 243.15,394.625 Q243.8375,395.6875 245.1813,395.6875 Q245.8063,395.6875 246.4,395.4219 Q246.9938,395.1406 247.6188,394.5625 L247.6188,397.2813 Z " fill="#000000"/><text fill="#000000" font-family="sans-serif" font-size="12" lengthAdjust="spacing" textLength="118" x="260.35" y="395.7949">RegisteredContent</text><line style="stroke:#A80036;stroke-width:1.5;" x1="223" x2="388" y1="407.6406" y2="407.6406"/><line style="stroke:#A80036;stroke-width:1.5;" x1="223" x2="388" y1="415.6406" y2="415.6406"/><ellipse cx="233" cy="426.6406" fill="#84BE84" rx="3" ry="3" style="stroke:#038048;stroke-width:1.0;"/><text fill="#000000" font-family="sans-serif" font-size="11" lengthAdjust="spacing" textLength="141" x="242" y="429.8511">requestMovie() : boolean</text><ellipse cx="233" cy="439.4453" fill="#84BE84" rx="3" ry="3" style="stroke:#038048;stroke-width:1.0;"/><text fill="#000000" font-family="sans-serif" font-size="11" lengthAdjust="spacing" textLength="120" x="242" y="442.6558">rentMovie() : boolean</text><!--MD5=[563cfb2ed04e0f44e3b7c3ac12ac09de]
class SubscribedContent--><rect codeLine="58" fill="#FEFECE" filter="url(#fj2bjk4nfejb)" height="73.6094" id="SubscribedContent" style="stroke:#A80036;stroke-width:1.5;" width="152" x="468.5" y="375.6406"/><ellipse cx="483.5" cy="391.6406" fill="#ADD1B2" rx="11" ry="11" style="stroke:#A80036;stroke-width:1.0;"/><path d="M486.4688,397.2813 Q485.8906,397.5781 485.25,397.7188 Q484.6094,397.875 483.9063,397.875 Q481.4063,397.875 480.0781,396.2344 Q478.7656,394.5781 478.7656,391.4531 Q478.7656,388.3281 480.0781,386.6719 Q481.4063,385.0156 483.9063,385.0156 Q484.6094,385.0156 485.25,385.1719 Q485.9063,385.3281 486.4688,385.625 L486.4688,388.3438 Q485.8438,387.7656 485.25,387.5 Q484.6563,387.2188 484.0313,387.2188 Q482.6875,387.2188 482,388.2969 Q481.3125,389.3594 481.3125,391.4531 Q481.3125,393.5469 482,394.625 Q482.6875,395.6875 484.0313,395.6875 Q484.6563,395.6875 485.25,395.4219 Q485.8438,395.1406 486.4688,394.5625 L486.4688,397.2813 Z " fill="#000000"/><text fill="#000000" font-family="sans-serif" font-size="12" lengthAdjust="spacing" textLength="120" x="497.5" y="395.7949">SubscribedContent</text><line style="stroke:#A80036;stroke-width:1.5;" x1="469.5" x2="619.5" y1="407.6406" y2="407.6406"/><line style="stroke:#A80036;stroke-width:1.5;" x1="469.5" x2="619.5" y1="415.6406" y2="415.6406"/><ellipse cx="479.5" cy="426.6406" fill="#84BE84" rx="3" ry="3" style="stroke:#038048;stroke-width:1.0;"/><text fill="#000000" font-family="sans-serif" font-size="11" lengthAdjust="spacing" textLength="117" x="488.5" y="429.8511">getCredit() : boolean</text><ellipse cx="479.5" cy="439.4453" fill="#84BE84" rx="3" ry="3" style="stroke:#038048;stroke-width:1.0;"/><text fill="#000000" font-family="sans-serif" font-size="11" lengthAdjust="spacing" textLength="120" x="488.5" y="442.6558">rentMovie() : boolean</text><!--MD5=[c837e86a27a30775a32ebee47e0808a3]
reverse link Movie to Content--><path codeLine="63" d="M192.5,189.9906 C192.5,208.1906 192.5,226.3506 192.5,241.3806 " fill="none" id="Movie-backto-Content" style="stroke:#A80036;stroke-width:1.0;"/><line style="stroke:#A80036;stroke-width:1.0;" x1="192.5" x2="184.5" y1="189.6406" y2="181.6406"/><line style="stroke:#A80036;stroke-width:1.0;" x1="192.5" x2="200.5" y1="189.6406" y2="181.6406"/><line style="stroke:#A80036;stroke-width:1.0;" x1="192.5" x2="192.5" y1="189.6406" y2="181.6406"/><!--MD5=[9feb5c54e6edc98e6cacfefded679924]
reverse link Content to RegisteredContent--><path codeLine="64" d="M228.72,321.9606 C243.52,339.2406 260.46,359.0306 274.66,375.6106 " fill="none" id="Content-backto-RegisteredContent" style="stroke:#A80036;stroke-width:1.0;"/><line style="stroke:#A80036;stroke-width:1.0;" x1="228.5769" x2="217.2979" y1="321.7927" y2="315.7106"/><line style="stroke:#A80036;stroke-width:1.0;" x1="228.5769" x2="229.4621" y1="321.7927" y2="315.7106"/><line style="stroke:#A80036;stroke-width:1.0;" x1="228.5769" x2="223.38" y1="321.7927" y2="315.7106"/><!--MD5=[16fc62291da4efd3d5fa7ab2defdfcdc]
link SubscribedContent to RegisteredContent--><path codeLine="65" d="M468.3,412.6406 C441.88,412.6406 415.47,412.6406 389.06,412.6406 " fill="none" id="SubscribedContent-RegisteredContent" style="stroke:#A80036;stroke-width:1.0;"/><!--MD5=[e94b235decd9a7cf1c389d58733f7bb1]
reverse link User to Registered--><path codeLine="66" d="M172.57,597.6406 C177.49,597.6406 182.41,597.6406 187.33,597.6406 " fill="none" id="User-backto-Registered" style="stroke:#A80036;stroke-width:1.0;"/><polygon fill="none" points="172.33,604.6406,152.33,597.6406,172.33,590.6406,172.33,604.6406" style="stroke:#A80036;stroke-width:1.0;"/><!--MD5=[55dc9fdbcbbb9c6f3f40d6792f8f0c06]
reverse link Registered to Subscriber--><path codeLine="67" d="M443.72,597.6406 C448.8,597.6406 453.88,597.6406 458.96,597.6406 " fill="none" id="Registered-backto-Subscriber" style="stroke:#A80036;stroke-width:1.0;"/><polygon fill="none" points="443.51,604.6406,423.51,597.6406,443.51,590.6406,443.51,604.6406" style="stroke:#A80036;stroke-width:1.0;"/><!--MD5=[ff2675244bdd7a75dfd059f26dcbc6b7]
link Content to User--><path codeLine="68" d="M179.65,315.7006 C160.62,369.0806 124.69,469.8606 101.44,535.0906 " fill="none" id="Content-User" style="stroke:#A80036;stroke-width:1.0;"/><!--MD5=[046d907c4d5bef1433b94a511f10c6b3]
link RegisteredContent to Registered--><path codeLine="69" d="M305.5,449.7906 C305.5,466.9806 305.5,488.3406 305.5,509.4006 " fill="none" id="RegisteredContent-Registered" style="stroke:#A80036;stroke-width:1.0;"/><!--MD5=[6bb451c316e2f7a4ab0671eed36f9162]
link SubscribedContent to Subscriber--><path codeLine="70" d="M553.19,449.7906 C559.03,474.0706 566.86,506.6606 573.67,534.9706 " fill="none" id="SubscribedContent-Subscriber" style="stroke:#A80036;stroke-width:1.0;"/><!--MD5=[707d065ed392c93de162ea9d8a677614]
@startuml
center header
Online Movie Store
endheader

class User {
  -ip : string
  -browser : string
  -location : string
  +getIp() : string
  +getBrowser() : string
  +getLocation() : string
}

class Registered {
  -id : int
  -username  : string
  -password : string
  +getId(): int
  +getUsername() : string
  +setUsername(string name) : void
  +getPassword() : string
  +setPassword(string password) : void
  +login() : boolean
  +logout() : boolean
}

class Subscriber {
  -startDate : timestamp
  -endDate : timestamp
  +getStartDate() : timestamp
  +setStartDate(timestamp startDate) : void
  +getEndDate() : timestamp
  +setEndDate(timestamp endDate) : void
}

class Movie {
  -title : string
  -duration : int
  -director : string
  +getTitle() : string
  +setTitle(string title) : void
  +getDuration() : int
  +setDuration(int duration) : void
  +getDirector() : string
  +setDirector(string director) : void
}

class Content {
  -movies : list
  +getMovies() : list
}

class RegisteredContent {
  +requestMovie() : boolean
  +rentMovie() : boolean
}

class SubscribedContent {
  +getCredit() : boolean
  +rentMovie() : boolean
}

Content -up-{ Movie
RegisteredContent -up-{ Content
SubscribedContent - RegisteredContent
User <|- Registered
Registered <|- Subscriber
User -up- Content
Registered -up- RegisteredContent
Subscriber -up- SubscribedContent
@enduml

PlantUML version 1.2021.16(Wed Dec 08 17:25:22 UTC 2021)
(GPL source distribution)
Java Runtime: OpenJDK Runtime Environment
JVM: OpenJDK 64-Bit Server VM
Default Encoding: UTF-8
Language: en
Country: US
--></g></svg>