<?xml version="1.0" encoding="UTF-8" standalone="no"?><svg xmlns="http://www.w3.org/2000/svg" xmlns:xlink="http://www.w3.org/1999/xlink" contentScriptType="application/ecmascript" contentStyleType="text/css" height="527px" preserveAspectRatio="none" style="width:884px;height:527px;background:#FFFFFF;" version="1.1" viewBox="0 0 884 527" width="884px" zoomAndPan="magnify"><defs><filter height="300%" id="f1jzip5kypobex" width="300%" x="-1" y="-1"><feGaussianBlur result="blurOut" stdDeviation="2.0"/><feColorMatrix in="blurOut" result="blurOut2" type="matrix" values="0 0 0 0 0 0 0 0 0 0 0 0 0 0 0 0 0 0 .4 0"/><feOffset dx="4.0" dy="4.0" in="blurOut2" result="blurOut3"/><feBlend in="SourceGraphic" in2="blurOut3" mode="normal"/></filter></defs><g><text fill="#888888" font-family="sans-serif" font-size="10" lengthAdjust="spacing" textLength="18" x="426.5" y="9.2822">Zoo</text><!--MD5=[7fd4401f5c5cb0e3d029c879cad30c04]
class Animal--><rect codeLine="6" fill="#FEFECE" filter="url(#f1jzip5kypobex)" height="227.2656" id="Animal" style="stroke:#A80036;stroke-width:1.5;" width="251" x="273" y="18.6406"/><ellipse cx="373.75" cy="34.6406" fill="#A9DCDF" rx="11" ry="11" style="stroke:#A80036;stroke-width:1.0;"/><path d="M373.8594,29.9844 L372.7031,35.0625 L375.0313,35.0625 L373.8594,29.9844 Z M372.375,27.75 L375.3594,27.75 L378.7188,40.1406 L376.2656,40.1406 L375.5,37.0781 L372.2188,37.0781 L371.4688,40.1406 L369.0313,40.1406 L372.375,27.75 Z " fill="#000000"/><text fill="#000000" font-family="sans-serif" font-size="12" font-style="italic" lengthAdjust="spacing" textLength="41" x="394.25" y="38.7949">Animal</text><line style="stroke:#A80036;stroke-width:1.5;" x1="274" x2="523" y1="50.6406" y2="50.6406"/><rect fill="none" height="6" style="stroke:#C82930;stroke-width:1.0;" width="6" x="281" y="58.6406"/><text fill="#000000" font-family="sans-serif" font-size="11" lengthAdjust="spacing" textLength="77" x="293" y="64.8511">name : string</text><rect fill="none" height="6" style="stroke:#C82930;stroke-width:1.0;" width="6" x="281" y="71.4453"/><text fill="#000000" font-family="sans-serif" font-size="11" lengthAdjust="spacing" textLength="63" x="293" y="77.6558">weight : int</text><rect fill="none" height="6" style="stroke:#C82930;stroke-width:1.0;" width="6" x="281" y="84.25"/><text fill="#000000" font-family="sans-serif" font-size="11" lengthAdjust="spacing" textLength="47" x="293" y="90.4604">age : int</text><line style="stroke:#A80036;stroke-width:1.5;" x1="274" x2="523" y1="97.0547" y2="97.0547"/><ellipse cx="284" cy="108.0547" fill="#84BE84" rx="3" ry="3" style="stroke:#038048;stroke-width:1.0;"/><text fill="#000000" font-family="sans-serif" font-size="11" lengthAdjust="spacing" textLength="46" x="293" y="111.2651">Animal()</text><ellipse cx="284" cy="120.8594" fill="#84BE84" rx="3" ry="3" style="stroke:#038048;stroke-width:1.0;"/><text fill="#000000" font-family="sans-serif" font-size="11" lengthAdjust="spacing" textLength="115" x="293" y="124.0698">Animal(string name)</text><ellipse cx="284" cy="133.6641" fill="#84BE84" rx="3" ry="3" style="stroke:#038048;stroke-width:1.0;"/><text fill="#000000" font-family="sans-serif" font-size="11" lengthAdjust="spacing" textLength="225" x="293" y="136.8745">Animal(string name, int weight, int age)</text><ellipse cx="284" cy="146.4688" fill="#84BE84" rx="3" ry="3" style="stroke:#038048;stroke-width:1.0;"/><text fill="#000000" font-family="sans-serif" font-size="11" lengthAdjust="spacing" textLength="104" x="293" y="149.6792">getName() : string</text><ellipse cx="284" cy="159.2734" fill="#84BE84" rx="3" ry="3" style="stroke:#038048;stroke-width:1.0;"/><text fill="#000000" font-family="sans-serif" font-size="11" lengthAdjust="spacing" textLength="163" x="293" y="162.4839">setName(string name) : void</text><ellipse cx="284" cy="172.0781" fill="#84BE84" rx="3" ry="3" style="stroke:#038048;stroke-width:1.0;"/><text fill="#000000" font-family="sans-serif" font-size="11" lengthAdjust="spacing" textLength="89" x="293" y="175.2886">getWeight() : int</text><ellipse cx="284" cy="184.8828" fill="#84BE84" rx="3" ry="3" style="stroke:#038048;stroke-width:1.0;"/><text fill="#000000" font-family="sans-serif" font-size="11" lengthAdjust="spacing" textLength="153" x="293" y="188.0933">setWeight(int weight) : void</text><ellipse cx="284" cy="197.6875" fill="#84BE84" rx="3" ry="3" style="stroke:#038048;stroke-width:1.0;"/><text fill="#000000" font-family="sans-serif" font-size="11" lengthAdjust="spacing" textLength="73" x="293" y="200.8979">getAge() : int</text><ellipse cx="284" cy="210.4922" fill="#84BE84" rx="3" ry="3" style="stroke:#038048;stroke-width:1.0;"/><text fill="#000000" font-family="sans-serif" font-size="11" lengthAdjust="spacing" textLength="121" x="293" y="213.7026">setAge(int age) : void</text><ellipse cx="284" cy="223.2969" fill="#84BE84" rx="3" ry="3" style="stroke:#038048;stroke-width:1.0;"/><text fill="#000000" font-family="sans-serif" font-size="11" lengthAdjust="spacing" textLength="69" x="293" y="226.5073">getDosage()</text><ellipse cx="284" cy="236.1016" fill="#84BE84" rx="3" ry="3" style="stroke:#038048;stroke-width:1.0;"/><text fill="#000000" font-family="sans-serif" font-size="11" lengthAdjust="spacing" textLength="105" x="293" y="239.312">getFeedSchedule()</text><!--MD5=[d5698f34745365e0946dec495cef933b]
class Horses--><rect codeLine="23" fill="#FEFECE" filter="url(#f1jzip5kypobex)" height="73.6094" id="Horses" style="stroke:#A80036;stroke-width:1.5;" width="131" x="111" y="305.6406"/><ellipse cx="150.75" cy="321.6406" fill="#A9DCDF" rx="11" ry="11" style="stroke:#A80036;stroke-width:1.0;"/><path d="M150.8594,316.9844 L149.7031,322.0625 L152.0313,322.0625 L150.8594,316.9844 Z M149.375,314.75 L152.3594,314.75 L155.7188,327.1406 L153.2656,327.1406 L152.5,324.0781 L149.2188,324.0781 L148.4688,327.1406 L146.0313,327.1406 L149.375,314.75 Z " fill="#000000"/><text fill="#000000" font-family="sans-serif" font-size="12" font-style="italic" lengthAdjust="spacing" textLength="44" x="170.25" y="325.7949">Horses</text><line style="stroke:#A80036;stroke-width:1.5;" x1="112" x2="241" y1="337.6406" y2="337.6406"/><line style="stroke:#A80036;stroke-width:1.5;" x1="112" x2="241" y1="345.6406" y2="345.6406"/><ellipse cx="122" cy="356.6406" fill="#84BE84" rx="3" ry="3" style="stroke:#038048;stroke-width:1.0;"/><text fill="#000000" font-family="sans-serif" font-size="11" lengthAdjust="spacing" textLength="69" x="131" y="359.8511">getDosage()</text><ellipse cx="122" cy="369.4453" fill="#84BE84" rx="3" ry="3" style="stroke:#038048;stroke-width:1.0;"/><text fill="#000000" font-family="sans-serif" font-size="11" lengthAdjust="spacing" textLength="105" x="131" y="372.6558">getFeedSchedule()</text><!--MD5=[e003bd0ad492c1594c85cd962a1e9016]
class Felidae--><rect codeLine="28" fill="#FEFECE" filter="url(#f1jzip5kypobex)" height="60.8047" id="Felidae" style="stroke:#A80036;stroke-width:1.5;" width="95" x="351" y="312.1406"/><ellipse cx="374.1" cy="328.1406" fill="#A9DCDF" rx="11" ry="11" style="stroke:#A80036;stroke-width:1.0;"/><path d="M374.2094,323.4844 L373.0531,328.5625 L375.3813,328.5625 L374.2094,323.4844 Z M372.725,321.25 L375.7094,321.25 L379.0688,333.6406 L376.6156,333.6406 L375.85,330.5781 L372.5688,330.5781 L371.8188,333.6406 L369.3813,333.6406 L372.725,321.25 Z " fill="#000000"/><text fill="#000000" font-family="sans-serif" font-size="12" font-style="italic" lengthAdjust="spacing" textLength="45" x="389.9" y="332.2949">Felidae</text><line style="stroke:#A80036;stroke-width:1.5;" x1="352" x2="445" y1="344.1406" y2="344.1406"/><line style="stroke:#A80036;stroke-width:1.5;" x1="352" x2="445" y1="352.1406" y2="352.1406"/><ellipse cx="362" cy="363.1406" fill="#84BE84" rx="3" ry="3" style="stroke:#038048;stroke-width:1.0;"/><text fill="#000000" font-family="sans-serif" font-size="11" lengthAdjust="spacing" textLength="69" x="371" y="366.3511">getDosage()</text><!--MD5=[7ad811958f1399c7614fb5302006e5d3]
class Rodentia--><rect codeLine="32" fill="#FEFECE" filter="url(#f1jzip5kypobex)" height="48" id="Rodentia" style="stroke:#A80036;stroke-width:1.5;" width="88" x="594.5" y="318.6406"/><ellipse cx="609.5" cy="334.6406" fill="#A9DCDF" rx="11" ry="11" style="stroke:#A80036;stroke-width:1.0;"/><path d="M609.6094,329.9844 L608.4531,335.0625 L610.7813,335.0625 L609.6094,329.9844 Z M608.125,327.75 L611.1094,327.75 L614.4688,340.1406 L612.0156,340.1406 L611.25,337.0781 L607.9688,337.0781 L607.2188,340.1406 L604.7813,340.1406 L608.125,327.75 Z " fill="#000000"/><text fill="#000000" font-family="sans-serif" font-size="12" font-style="italic" lengthAdjust="spacing" textLength="56" x="623.5" y="338.7949">Rodentia</text><line style="stroke:#A80036;stroke-width:1.5;" x1="595.5" x2="681.5" y1="350.6406" y2="350.6406"/><line style="stroke:#A80036;stroke-width:1.5;" x1="595.5" x2="681.5" y1="358.6406" y2="358.6406"/><!--MD5=[ced20fe0d287375d25d243599fc4d6cf]
class Horse--><rect codeLine="36" fill="#FEFECE" filter="url(#f1jzip5kypobex)" height="48" id="Horse" style="stroke:#A80036;stroke-width:1.5;" width="69" x="7" y="452.6406"/><ellipse cx="22" cy="468.6406" fill="#ADD1B2" rx="11" ry="11" style="stroke:#A80036;stroke-width:1.0;"/><path d="M24.9688,474.2813 Q24.3906,474.5781 23.75,474.7188 Q23.1094,474.875 22.4063,474.875 Q19.9063,474.875 18.5781,473.2344 Q17.2656,471.5781 17.2656,468.4531 Q17.2656,465.3281 18.5781,463.6719 Q19.9063,462.0156 22.4063,462.0156 Q23.1094,462.0156 23.75,462.1719 Q24.4063,462.3281 24.9688,462.625 L24.9688,465.3438 Q24.3438,464.7656 23.75,464.5 Q23.1563,464.2188 22.5313,464.2188 Q21.1875,464.2188 20.5,465.2969 Q19.8125,466.3594 19.8125,468.4531 Q19.8125,470.5469 20.5,471.625 Q21.1875,472.6875 22.5313,472.6875 Q23.1563,472.6875 23.75,472.4219 Q24.3438,472.1406 24.9688,471.5625 L24.9688,474.2813 Z " fill="#000000"/><text fill="#000000" font-family="sans-serif" font-size="12" lengthAdjust="spacing" textLength="37" x="36" y="472.7949">Horse</text><line style="stroke:#A80036;stroke-width:1.5;" x1="8" x2="75" y1="484.6406" y2="484.6406"/><line style="stroke:#A80036;stroke-width:1.5;" x1="8" x2="75" y1="492.6406" y2="492.6406"/><!--MD5=[57639506bc3fcd519b5101dc150314ac]
class Zebra--><rect codeLine="40" fill="#FEFECE" filter="url(#f1jzip5kypobex)" height="73.6094" id="Zebra" style="stroke:#A80036;stroke-width:1.5;" width="131" x="111" y="439.6406"/><ellipse cx="153.45" cy="455.6406" fill="#ADD1B2" rx="11" ry="11" style="stroke:#A80036;stroke-width:1.0;"/><path d="M156.4188,461.2813 Q155.8406,461.5781 155.2,461.7188 Q154.5594,461.875 153.8563,461.875 Q151.3563,461.875 150.0281,460.2344 Q148.7156,458.5781 148.7156,455.4531 Q148.7156,452.3281 150.0281,450.6719 Q151.3563,449.0156 153.8563,449.0156 Q154.5594,449.0156 155.2,449.1719 Q155.8563,449.3281 156.4188,449.625 L156.4188,452.3438 Q155.7938,451.7656 155.2,451.5 Q154.6063,451.2188 153.9813,451.2188 Q152.6375,451.2188 151.95,452.2969 Q151.2625,453.3594 151.2625,455.4531 Q151.2625,457.5469 151.95,458.625 Q152.6375,459.6875 153.9813,459.6875 Q154.6063,459.6875 155.2,459.4219 Q155.7938,459.1406 156.4188,458.5625 L156.4188,461.2813 Z " fill="#000000"/><text fill="#000000" font-family="sans-serif" font-size="12" lengthAdjust="spacing" textLength="38" x="173.55" y="459.7949">Zebra</text><line style="stroke:#A80036;stroke-width:1.5;" x1="112" x2="241" y1="471.6406" y2="471.6406"/><line style="stroke:#A80036;stroke-width:1.5;" x1="112" x2="241" y1="479.6406" y2="479.6406"/><ellipse cx="122" cy="490.6406" fill="#84BE84" rx="3" ry="3" style="stroke:#038048;stroke-width:1.0;"/><text fill="#000000" font-family="sans-serif" font-size="11" lengthAdjust="spacing" textLength="69" x="131" y="493.8511">getDosage()</text><ellipse cx="122" cy="503.4453" fill="#84BE84" rx="3" ry="3" style="stroke:#038048;stroke-width:1.0;"/><text fill="#000000" font-family="sans-serif" font-size="11" lengthAdjust="spacing" textLength="105" x="131" y="506.6558">getFeedSchedule()</text><!--MD5=[5a3711e471b734e3cef8abe5b247e941]
class Tiger--><rect codeLine="45" fill="#FEFECE" filter="url(#f1jzip5kypobex)" height="60.8047" id="Tiger" style="stroke:#A80036;stroke-width:1.5;" width="95" x="277" y="446.1406"/><ellipse cx="306.4" cy="462.1406" fill="#ADD1B2" rx="11" ry="11" style="stroke:#A80036;stroke-width:1.0;"/><path d="M309.3688,467.7813 Q308.7906,468.0781 308.15,468.2188 Q307.5094,468.375 306.8063,468.375 Q304.3063,468.375 302.9781,466.7344 Q301.6656,465.0781 301.6656,461.9531 Q301.6656,458.8281 302.9781,457.1719 Q304.3063,455.5156 306.8063,455.5156 Q307.5094,455.5156 308.15,455.6719 Q308.8063,455.8281 309.3688,456.125 L309.3688,458.8438 Q308.7438,458.2656 308.15,458 Q307.5563,457.7188 306.9313,457.7188 Q305.5875,457.7188 304.9,458.7969 Q304.2125,459.8594 304.2125,461.9531 Q304.2125,464.0469 304.9,465.125 Q305.5875,466.1875 306.9313,466.1875 Q307.5563,466.1875 308.15,465.9219 Q308.7438,465.6406 309.3688,465.0625 L309.3688,467.7813 Z " fill="#000000"/><text fill="#000000" font-family="sans-serif" font-size="12" lengthAdjust="spacing" textLength="31" x="323.6" y="466.2949">Tiger</text><line style="stroke:#A80036;stroke-width:1.5;" x1="278" x2="371" y1="478.1406" y2="478.1406"/><line style="stroke:#A80036;stroke-width:1.5;" x1="278" x2="371" y1="486.1406" y2="486.1406"/><ellipse cx="288" cy="497.1406" fill="#84BE84" rx="3" ry="3" style="stroke:#038048;stroke-width:1.0;"/><text fill="#000000" font-family="sans-serif" font-size="11" lengthAdjust="spacing" textLength="69" x="297" y="500.3511">getDosage()</text><!--MD5=[f37cfec4bcac08c4a5b32f09f9dd8930]
class Lion--><rect codeLine="49" fill="#FEFECE" filter="url(#f1jzip5kypobex)" height="60.8047" id="Lion" style="stroke:#A80036;stroke-width:1.5;" width="131" x="407" y="446.1406"/><ellipse cx="455.75" cy="462.1406" fill="#ADD1B2" rx="11" ry="11" style="stroke:#A80036;stroke-width:1.0;"/><path d="M458.7188,467.7813 Q458.1406,468.0781 457.5,468.2188 Q456.8594,468.375 456.1563,468.375 Q453.6563,468.375 452.3281,466.7344 Q451.0156,465.0781 451.0156,461.9531 Q451.0156,458.8281 452.3281,457.1719 Q453.6563,455.5156 456.1563,455.5156 Q456.8594,455.5156 457.5,455.6719 Q458.1563,455.8281 458.7188,456.125 L458.7188,458.8438 Q458.0938,458.2656 457.5,458 Q456.9063,457.7188 456.2813,457.7188 Q454.9375,457.7188 454.25,458.7969 Q453.5625,459.8594 453.5625,461.9531 Q453.5625,464.0469 454.25,465.125 Q454.9375,466.1875 456.2813,466.1875 Q456.9063,466.1875 457.5,465.9219 Q458.0938,465.6406 458.7188,465.0625 L458.7188,467.7813 Z " fill="#000000"/><text fill="#000000" font-family="sans-serif" font-size="12" lengthAdjust="spacing" textLength="25" x="476.25" y="466.2949">Lion</text><line style="stroke:#A80036;stroke-width:1.5;" x1="408" x2="537" y1="478.1406" y2="478.1406"/><line style="stroke:#A80036;stroke-width:1.5;" x1="408" x2="537" y1="486.1406" y2="486.1406"/><ellipse cx="418" cy="497.1406" fill="#84BE84" rx="3" ry="3" style="stroke:#038048;stroke-width:1.0;"/><text fill="#000000" font-family="sans-serif" font-size="11" lengthAdjust="spacing" textLength="105" x="427" y="500.3511">getFeedSchedule()</text><!--MD5=[fe782d2af2dd066831413d36e69a72cb]
class Rat--><rect codeLine="53" fill="#FEFECE" filter="url(#f1jzip5kypobex)" height="60.8047" id="Rat" style="stroke:#A80036;stroke-width:1.5;" width="131" x="573" y="446.1406"/><ellipse cx="623.75" cy="462.1406" fill="#ADD1B2" rx="11" ry="11" style="stroke:#A80036;stroke-width:1.0;"/><path d="M626.7188,467.7813 Q626.1406,468.0781 625.5,468.2188 Q624.8594,468.375 624.1563,468.375 Q621.6563,468.375 620.3281,466.7344 Q619.0156,465.0781 619.0156,461.9531 Q619.0156,458.8281 620.3281,457.1719 Q621.6563,455.5156 624.1563,455.5156 Q624.8594,455.5156 625.5,455.6719 Q626.1563,455.8281 626.7188,456.125 L626.7188,458.8438 Q626.0938,458.2656 625.5,458 Q624.9063,457.7188 624.2813,457.7188 Q622.9375,457.7188 622.25,458.7969 Q621.5625,459.8594 621.5625,461.9531 Q621.5625,464.0469 622.25,465.125 Q622.9375,466.1875 624.2813,466.1875 Q624.9063,466.1875 625.5,465.9219 Q626.0938,465.6406 626.7188,465.0625 L626.7188,467.7813 Z " fill="#000000"/><text fill="#000000" font-family="sans-serif" font-size="12" lengthAdjust="spacing" textLength="21" x="644.25" y="466.2949">Rat</text><line style="stroke:#A80036;stroke-width:1.5;" x1="574" x2="703" y1="478.1406" y2="478.1406"/><line style="stroke:#A80036;stroke-width:1.5;" x1="574" x2="703" y1="486.1406" y2="486.1406"/><ellipse cx="584" cy="497.1406" fill="#84BE84" rx="3" ry="3" style="stroke:#038048;stroke-width:1.0;"/><text fill="#000000" font-family="sans-serif" font-size="11" lengthAdjust="spacing" textLength="105" x="593" y="500.3511">getFeedSchedule()</text><!--MD5=[90aec0f795bdd175b4047c76d1939972]
class Beaver--><rect codeLine="58" fill="#FEFECE" filter="url(#f1jzip5kypobex)" height="73.6094" id="Beaver" style="stroke:#A80036;stroke-width:1.5;" width="131" x="739" y="439.6406"/><ellipse cx="779.2" cy="455.6406" fill="#ADD1B2" rx="11" ry="11" style="stroke:#A80036;stroke-width:1.0;"/><path d="M782.1688,461.2813 Q781.5906,461.5781 780.95,461.7188 Q780.3094,461.875 779.6063,461.875 Q777.1063,461.875 775.7781,460.2344 Q774.4656,458.5781 774.4656,455.4531 Q774.4656,452.3281 775.7781,450.6719 Q777.1063,449.0156 779.6063,449.0156 Q780.3094,449.0156 780.95,449.1719 Q781.6063,449.3281 782.1688,449.625 L782.1688,452.3438 Q781.5438,451.7656 780.95,451.5 Q780.3563,451.2188 779.7313,451.2188 Q778.3875,451.2188 777.7,452.2969 Q777.0125,453.3594 777.0125,455.4531 Q777.0125,457.5469 777.7,458.625 Q778.3875,459.6875 779.7313,459.6875 Q780.3563,459.6875 780.95,459.4219 Q781.5438,459.1406 782.1688,458.5625 L782.1688,461.2813 Z " fill="#000000"/><text fill="#000000" font-family="sans-serif" font-size="12" lengthAdjust="spacing" textLength="43" x="798.8" y="459.7949">Beaver</text><line style="stroke:#A80036;stroke-width:1.5;" x1="740" x2="869" y1="471.6406" y2="471.6406"/><line style="stroke:#A80036;stroke-width:1.5;" x1="740" x2="869" y1="479.6406" y2="479.6406"/><ellipse cx="750" cy="490.6406" fill="#84BE84" rx="3" ry="3" style="stroke:#038048;stroke-width:1.0;"/><text fill="#000000" font-family="sans-serif" font-size="11" lengthAdjust="spacing" textLength="69" x="759" y="493.8511">getDosage()</text><ellipse cx="750" cy="503.4453" fill="#84BE84" rx="3" ry="3" style="stroke:#038048;stroke-width:1.0;"/><text fill="#000000" font-family="sans-serif" font-size="11" lengthAdjust="spacing" textLength="105" x="759" y="506.6558">getFeedSchedule()</text><!--MD5=[5dbb9a42598fac07a1a5616daeb6fffd]
reverse link Animal to Horses--><path codeLine="63" d="M263.76,259.6806 C246.11,276.2606 229.3,292.0506 215.23,305.2606 " fill="none" id="Animal-backto-Horses" style="stroke:#A80036;stroke-width:1.0;"/><polygon fill="none" points="259.03,254.5206,278.4,245.9306,268.62,264.7306,259.03,254.5206" style="stroke:#A80036;stroke-width:1.0;"/><!--MD5=[22de0e68527b8adb832b026e738ec86e]
reverse link Animal to Felidae--><path codeLine="64" d="M398.5,265.9506 C398.5,283.0106 398.5,298.9706 398.5,311.7906 " fill="none" id="Animal-backto-Felidae" style="stroke:#A80036;stroke-width:1.0;"/><polygon fill="none" points="391.5,265.9306,398.5,245.9306,405.5,265.9306,391.5,265.9306" style="stroke:#A80036;stroke-width:1.0;"/><!--MD5=[756b01787d4251e695338baf131afb58]
reverse link Animal to Rodentia--><path codeLine="65" d="M539.57,255.6906 C567.15,279.6506 593.2,302.2906 611.64,318.3006 " fill="none" id="Animal-backto-Rodentia" style="stroke:#A80036;stroke-width:1.0;"/><polygon fill="none" points="534.63,260.6806,524.12,242.2806,543.81,250.1106,534.63,260.6806" style="stroke:#A80036;stroke-width:1.0;"/><!--MD5=[2c9c0b5a369d03a62e8a4e770c85043f]
reverse link Horses to Horse--><path codeLine="67" d="M125.09,393.9106 C104.47,414.0706 81.72,436.3106 65.17,452.5006 " fill="none" id="Horses-backto-Horse" style="stroke:#A80036;stroke-width:1.0;"/><polygon fill="none" points="120.42,388.6906,139.61,379.7106,130.2,398.7006,120.42,388.6906" style="stroke:#A80036;stroke-width:1.0;"/><!--MD5=[b13c84293eb1d00336fb5e652effcda4]
reverse link Horses to Zebra--><path codeLine="68" d="M176.5,400.0206 C176.5,413.4406 176.5,427.4006 176.5,439.6106 " fill="none" id="Horses-backto-Zebra" style="stroke:#A80036;stroke-width:1.0;"/><polygon fill="none" points="169.5,399.7106,176.5,379.7106,183.5,399.7106,169.5,399.7106" style="stroke:#A80036;stroke-width:1.0;"/><!--MD5=[453357bc989bafd9601d7e69993ead49]
reverse link Felidae to Tiger--><path codeLine="70" d="M372.08,390.7606 C361.73,409.2206 350.18,429.8306 341.05,446.1206 " fill="none" id="Felidae-backto-Tiger" style="stroke:#A80036;stroke-width:1.0;"/><polygon fill="none" points="366.01,387.2906,381.89,373.2606,378.22,394.1306,366.01,387.2906" style="stroke:#A80036;stroke-width:1.0;"/><!--MD5=[3e5635013617186a37be555b236db63a]
reverse link Felidae to Lion--><path codeLine="71" d="M424.92,390.7606 C435.27,409.2206 446.82,429.8306 455.95,446.1206 " fill="none" id="Felidae-backto-Lion" style="stroke:#A80036;stroke-width:1.0;"/><polygon fill="none" points="418.78,394.1306,415.11,373.2606,430.99,387.2906,418.78,394.1306" style="stroke:#A80036;stroke-width:1.0;"/><!--MD5=[d8df8116729cfe754917569e0ee3471b]
reverse link Rodentia to Rat--><path codeLine="73" d="M638.5,387.1106 C638.5,406.4606 638.5,428.7306 638.5,446.1006 " fill="none" id="Rodentia-backto-Rat" style="stroke:#A80036;stroke-width:1.0;"/><polygon fill="none" points="631.5,386.9406,638.5,366.9406,645.5,386.9406,631.5,386.9406" style="stroke:#A80036;stroke-width:1.0;"/><!--MD5=[4c4f569797826bc77137582153b1c749]
reverse link Rodentia to Beaver--><path codeLine="74" d="M683.76,379.6306 C707.11,398.1906 735.52,420.7906 758.91,439.3906 " fill="none" id="Rodentia-backto-Beaver" style="stroke:#A80036;stroke-width:1.0;"/><polygon fill="none" points="679.09,384.8606,667.8,366.9406,687.81,373.9006,679.09,384.8606" style="stroke:#A80036;stroke-width:1.0;"/><!--MD5=[cd5ee6ba87a9ed5f398a80716c28897e]
@startuml
center header
Zoo
endheader


abstract class Animal {
  -name : string
  -weight : int
  -age : int
  +Animal()
  +Animal(string name)
  +Animal(string name, int weight, int age)
  +getName() : string
  +setName(string name) : void
  +getWeight() : int
  +setWeight(int weight) : void
  +getAge() : int
  +setAge(int age) : void
  +getDosage()
  +getFeedSchedule()
}

abstract class Horses {
  +getDosage()
  +getFeedSchedule()
}

abstract class Felidae {
  +getDosage()
}

abstract class Rodentia {

}

class Horse {
  
}

class Zebra {
  +getDosage()
  +getFeedSchedule()
}

class Tiger {
  +getDosage()
}

class Lion {
  +getFeedSchedule()
}

class Rat {
  +getFeedSchedule()

}

class Beaver {
  +getDosage()
  +getFeedSchedule()
}

Animal <|- - Horses
Animal <|- - Felidae
Animal <|- - Rodentia

Horses <|- - Horse
Horses <|- - Zebra

Felidae <|- - Tiger
Felidae <|- - Lion

Rodentia <|- - Rat
Rodentia <|- - Beaver
@enduml

PlantUML version 1.2021.16(Wed Dec 08 17:25:22 UTC 2021)
(GPL source distribution)
Java Runtime: OpenJDK Runtime Environment
JVM: OpenJDK 64-Bit Server VM
Default Encoding: UTF-8
Language: en
Country: US
--></g></svg>