<?xml version="1.0" encoding="UTF-8" standalone="no"?><svg xmlns="http://www.w3.org/2000/svg" xmlns:xlink="http://www.w3.org/1999/xlink" contentScriptType="application/ecmascript" contentStyleType="text/css" height="955px" preserveAspectRatio="none" style="width:832px;height:955px;background:#FFFFFF;" version="1.1" viewBox="0 0 832 955" width="832px" zoomAndPan="magnify"><defs><filter height="300%" id="f1pqmu52u053wj" width="300%" x="-1" y="-1"><feGaussianBlur result="blurOut" stdDeviation="2.0"/><feColorMatrix in="blurOut" result="blurOut2" type="matrix" values="0 0 0 0 0 0 0 0 0 0 0 0 0 0 0 0 0 0 .4 0"/><feOffset dx="4.0" dy="4.0" in="blurOut2" result="blurOut3"/><feBlend in="SourceGraphic" in2="blurOut3" mode="normal"/></filter></defs><g><text fill="#888888" font-family="sans-serif" font-size="10" lengthAdjust="spacing" textLength="158" x="330.75" y="9.2822">University Management System</text><!--MD5=[9f93fc4de6aba39e63ecc8b5110a2944]
class University--><rect codeLine="6" fill="#FEFECE" filter="url(#f1pqmu52u053wj)" height="137.6328" id="University" style="stroke:#A80036;stroke-width:1.5;" width="189" x="417" y="18.6406"/><ellipse cx="477.25" cy="34.6406" fill="#ADD1B2" rx="11" ry="11" style="stroke:#A80036;stroke-width:1.0;"/><path d="M480.2188,40.2813 Q479.6406,40.5781 479,40.7188 Q478.3594,40.875 477.6563,40.875 Q475.1563,40.875 473.8281,39.2344 Q472.5156,37.5781 472.5156,34.4531 Q472.5156,31.3281 473.8281,29.6719 Q475.1563,28.0156 477.6563,28.0156 Q478.3594,28.0156 479,28.1719 Q479.6563,28.3281 480.2188,28.625 L480.2188,31.3438 Q479.5938,30.7656 479,30.5 Q478.4063,30.2188 477.7813,30.2188 Q476.4375,30.2188 475.75,31.2969 Q475.0625,32.3594 475.0625,34.4531 Q475.0625,36.5469 475.75,37.625 Q476.4375,38.6875 477.7813,38.6875 Q478.4063,38.6875 479,38.4219 Q479.5938,38.1406 480.2188,37.5625 L480.2188,40.2813 Z " fill="#000000"/><text fill="#000000" font-family="sans-serif" font-size="12" lengthAdjust="spacing" textLength="60" x="497.75" y="38.7949">University</text><line style="stroke:#A80036;stroke-width:1.5;" x1="418" x2="605" y1="50.6406" y2="50.6406"/><rect fill="none" height="6" style="stroke:#C82930;stroke-width:1.0;" width="6" x="425" y="58.6406"/><text fill="#000000" font-family="sans-serif" font-size="11" lengthAdjust="spacing" textLength="46" x="437" y="64.8511">id : int *</text><rect fill="none" height="6" style="stroke:#C82930;stroke-width:1.0;" width="6" x="425" y="71.4453"/><text fill="#000000" font-family="sans-serif" font-size="11" lengthAdjust="spacing" textLength="77" x="437" y="77.6558">name : string</text><line style="stroke:#A80036;stroke-width:1.5;" x1="418" x2="605" y1="84.25" y2="84.25"/><ellipse cx="428" cy="95.25" fill="#84BE84" rx="3" ry="3" style="stroke:#038048;stroke-width:1.0;"/><text fill="#000000" font-family="sans-serif" font-size="11" lengthAdjust="spacing" textLength="64" x="437" y="98.4604">University()</text><ellipse cx="428" cy="108.0547" fill="#84BE84" rx="3" ry="3" style="stroke:#038048;stroke-width:1.0;"/><text fill="#000000" font-family="sans-serif" font-size="11" lengthAdjust="spacing" textLength="133" x="437" y="111.2651">University(string name)</text><ellipse cx="428" cy="120.8594" fill="#84BE84" rx="3" ry="3" style="stroke:#038048;stroke-width:1.0;"/><text fill="#000000" font-family="sans-serif" font-size="11" lengthAdjust="spacing" textLength="62" x="437" y="124.0698">getId() : int</text><ellipse cx="428" cy="133.6641" fill="#84BE84" rx="3" ry="3" style="stroke:#038048;stroke-width:1.0;"/><text fill="#000000" font-family="sans-serif" font-size="11" lengthAdjust="spacing" textLength="108" x="437" y="136.8745">getName() :  string</text><ellipse cx="428" cy="146.4688" fill="#84BE84" rx="3" ry="3" style="stroke:#038048;stroke-width:1.0;"/><text fill="#000000" font-family="sans-serif" font-size="11" lengthAdjust="spacing" textLength="163" x="437" y="149.6792">setName(string name) : void</text><!--MD5=[c50d89439a12e948b363c4efab1c487c]
class Department--><rect codeLine="16" fill="#FEFECE" filter="url(#f1pqmu52u053wj)" height="150.4375" id="Department" style="stroke:#A80036;stroke-width:1.5;" width="189" x="343" y="216.6406"/><ellipse cx="395.75" cy="232.6406" fill="#ADD1B2" rx="11" ry="11" style="stroke:#A80036;stroke-width:1.0;"/><path d="M398.7188,238.2813 Q398.1406,238.5781 397.5,238.7188 Q396.8594,238.875 396.1563,238.875 Q393.6563,238.875 392.3281,237.2344 Q391.0156,235.5781 391.0156,232.4531 Q391.0156,229.3281 392.3281,227.6719 Q393.6563,226.0156 396.1563,226.0156 Q396.8594,226.0156 397.5,226.1719 Q398.1563,226.3281 398.7188,226.625 L398.7188,229.3438 Q398.0938,228.7656 397.5,228.5 Q396.9063,228.2188 396.2813,228.2188 Q394.9375,228.2188 394.25,229.2969 Q393.5625,230.3594 393.5625,232.4531 Q393.5625,234.5469 394.25,235.625 Q394.9375,236.6875 396.2813,236.6875 Q396.9063,236.6875 397.5,236.4219 Q398.0938,236.1406 398.7188,235.5625 L398.7188,238.2813 Z " fill="#000000"/><text fill="#000000" font-family="sans-serif" font-size="12" lengthAdjust="spacing" textLength="75" x="416.25" y="236.7949">Department</text><line style="stroke:#A80036;stroke-width:1.5;" x1="344" x2="531" y1="248.6406" y2="248.6406"/><rect fill="none" height="6" style="stroke:#C82930;stroke-width:1.0;" width="6" x="351" y="256.6406"/><text fill="#000000" font-family="sans-serif" font-size="11" lengthAdjust="spacing" textLength="46" x="363" y="262.8511">id : int *</text><rect fill="none" height="6" style="stroke:#C82930;stroke-width:1.0;" width="6" x="351" y="269.4453"/><text fill="#000000" font-family="sans-serif" font-size="11" lengthAdjust="spacing" textLength="77" x="363" y="275.6558">name : string</text><line style="stroke:#A80036;stroke-width:1.5;" x1="344" x2="531" y1="282.25" y2="282.25"/><ellipse cx="354" cy="293.25" fill="#84BE84" rx="3" ry="3" style="stroke:#038048;stroke-width:1.0;"/><text fill="#000000" font-family="sans-serif" font-size="11" lengthAdjust="spacing" textLength="75" x="363" y="296.4604">Department()</text><ellipse cx="354" cy="306.0547" fill="#84BE84" rx="3" ry="3" style="stroke:#038048;stroke-width:1.0;"/><text fill="#000000" font-family="sans-serif" font-size="11" lengthAdjust="spacing" textLength="144" x="363" y="309.2651">Department(string name)</text><ellipse cx="354" cy="318.8594" fill="#84BE84" rx="3" ry="3" style="stroke:#038048;stroke-width:1.0;"/><text fill="#000000" font-family="sans-serif" font-size="11" lengthAdjust="spacing" textLength="62" x="363" y="322.0698">getId() : int</text><ellipse cx="354" cy="331.6641" fill="#84BE84" rx="3" ry="3" style="stroke:#038048;stroke-width:1.0;"/><text fill="#000000" font-family="sans-serif" font-size="11" lengthAdjust="spacing" textLength="108" x="363" y="334.8745">getName() :  string</text><ellipse cx="354" cy="344.4688" fill="#84BE84" rx="3" ry="3" style="stroke:#038048;stroke-width:1.0;"/><text fill="#000000" font-family="sans-serif" font-size="11" lengthAdjust="spacing" textLength="163" x="363" y="347.6792">setName(string name) : void</text><ellipse cx="354" cy="357.2734" fill="#84BE84" rx="3" ry="3" style="stroke:#038048;stroke-width:1.0;"/><text fill="#000000" font-family="sans-serif" font-size="11" lengthAdjust="spacing" textLength="100" x="363" y="360.4839">getCode() : string</text><!--MD5=[b39bf2416e05f940a14e3aa44644fd2d]
class Office--><rect codeLine="27" fill="#FEFECE" filter="url(#f1pqmu52u053wj)" height="137.6328" id="Office" style="stroke:#A80036;stroke-width:1.5;" width="180" x="492.5" y="490.6406"/><ellipse cx="560.75" cy="506.6406" fill="#ADD1B2" rx="11" ry="11" style="stroke:#A80036;stroke-width:1.0;"/><path d="M563.7188,512.2813 Q563.1406,512.5781 562.5,512.7188 Q561.8594,512.875 561.1563,512.875 Q558.6563,512.875 557.3281,511.2344 Q556.0156,509.5781 556.0156,506.4531 Q556.0156,503.3281 557.3281,501.6719 Q558.6563,500.0156 561.1563,500.0156 Q561.8594,500.0156 562.5,500.1719 Q563.1563,500.3281 563.7188,500.625 L563.7188,503.3438 Q563.0938,502.7656 562.5,502.5 Q561.9063,502.2188 561.2813,502.2188 Q559.9375,502.2188 559.25,503.2969 Q558.5625,504.3594 558.5625,506.4531 Q558.5625,508.5469 559.25,509.625 Q559.9375,510.6875 561.2813,510.6875 Q561.9063,510.6875 562.5,510.4219 Q563.0938,510.1406 563.7188,509.5625 L563.7188,512.2813 Z " fill="#000000"/><text fill="#000000" font-family="sans-serif" font-size="12" lengthAdjust="spacing" textLength="35" x="581.25" y="510.7949">Office</text><line style="stroke:#A80036;stroke-width:1.5;" x1="493.5" x2="671.5" y1="522.6406" y2="522.6406"/><rect fill="none" height="6" style="stroke:#C82930;stroke-width:1.0;" width="6" x="500.5" y="530.6406"/><text fill="#000000" font-family="sans-serif" font-size="11" lengthAdjust="spacing" textLength="46" x="512.5" y="536.8511">id : int *</text><rect fill="none" height="6" style="stroke:#C82930;stroke-width:1.0;" width="6" x="500.5" y="543.4453"/><text fill="#000000" font-family="sans-serif" font-size="11" lengthAdjust="spacing" textLength="72" x="512.5" y="549.6558">code : string</text><line style="stroke:#A80036;stroke-width:1.5;" x1="493.5" x2="671.5" y1="556.25" y2="556.25"/><ellipse cx="503.5" cy="567.25" fill="#84BE84" rx="3" ry="3" style="stroke:#038048;stroke-width:1.0;"/><text fill="#000000" font-family="sans-serif" font-size="11" lengthAdjust="spacing" textLength="41" x="512.5" y="570.4604">Office()</text><ellipse cx="503.5" cy="580.0547" fill="#84BE84" rx="3" ry="3" style="stroke:#038048;stroke-width:1.0;"/><text fill="#000000" font-family="sans-serif" font-size="11" lengthAdjust="spacing" textLength="110" x="512.5" y="583.2651">Office(string name)</text><ellipse cx="503.5" cy="592.8594" fill="#84BE84" rx="3" ry="3" style="stroke:#038048;stroke-width:1.0;"/><text fill="#000000" font-family="sans-serif" font-size="11" lengthAdjust="spacing" textLength="62" x="512.5" y="596.0698">getId() : int</text><ellipse cx="503.5" cy="605.6641" fill="#84BE84" rx="3" ry="3" style="stroke:#038048;stroke-width:1.0;"/><text fill="#000000" font-family="sans-serif" font-size="11" lengthAdjust="spacing" textLength="104" x="512.5" y="608.8745">getCode() :  string</text><ellipse cx="503.5" cy="618.4688" fill="#84BE84" rx="3" ry="3" style="stroke:#038048;stroke-width:1.0;"/><text fill="#000000" font-family="sans-serif" font-size="11" lengthAdjust="spacing" textLength="154" x="512.5" y="621.6792">setCode(string code) : void</text><!--MD5=[07c7e514efcb6880c7462dff01bcaca6]
class Classroom--><rect codeLine="37" fill="#FEFECE" filter="url(#f1pqmu52u053wj)" height="137.6328" id="Classroom" style="stroke:#A80036;stroke-width:1.5;" width="180" x="638.5" y="222.6406"/><ellipse cx="691.75" cy="238.6406" fill="#ADD1B2" rx="11" ry="11" style="stroke:#A80036;stroke-width:1.0;"/><path d="M694.7188,244.2813 Q694.1406,244.5781 693.5,244.7188 Q692.8594,244.875 692.1563,244.875 Q689.6563,244.875 688.3281,243.2344 Q687.0156,241.5781 687.0156,238.4531 Q687.0156,235.3281 688.3281,233.6719 Q689.6563,232.0156 692.1563,232.0156 Q692.8594,232.0156 693.5,232.1719 Q694.1563,232.3281 694.7188,232.625 L694.7188,235.3438 Q694.0938,234.7656 693.5,234.5 Q692.9063,234.2188 692.2813,234.2188 Q690.9375,234.2188 690.25,235.2969 Q689.5625,236.3594 689.5625,238.4531 Q689.5625,240.5469 690.25,241.625 Q690.9375,242.6875 692.2813,242.6875 Q692.9063,242.6875 693.5,242.4219 Q694.0938,242.1406 694.7188,241.5625 L694.7188,244.2813 Z " fill="#000000"/><text fill="#000000" font-family="sans-serif" font-size="12" lengthAdjust="spacing" textLength="65" x="712.25" y="242.7949">Classroom</text><line style="stroke:#A80036;stroke-width:1.5;" x1="639.5" x2="817.5" y1="254.6406" y2="254.6406"/><rect fill="none" height="6" style="stroke:#C82930;stroke-width:1.0;" width="6" x="646.5" y="262.6406"/><text fill="#000000" font-family="sans-serif" font-size="11" lengthAdjust="spacing" textLength="46" x="658.5" y="268.8511">id : int *</text><rect fill="none" height="6" style="stroke:#C82930;stroke-width:1.0;" width="6" x="646.5" y="275.4453"/><text fill="#000000" font-family="sans-serif" font-size="11" lengthAdjust="spacing" textLength="72" x="658.5" y="281.6558">code : string</text><line style="stroke:#A80036;stroke-width:1.5;" x1="639.5" x2="817.5" y1="288.25" y2="288.25"/><ellipse cx="649.5" cy="299.25" fill="#84BE84" rx="3" ry="3" style="stroke:#038048;stroke-width:1.0;"/><text fill="#000000" font-family="sans-serif" font-size="11" lengthAdjust="spacing" textLength="70" x="658.5" y="302.4604">Classroom()</text><ellipse cx="649.5" cy="312.0547" fill="#84BE84" rx="3" ry="3" style="stroke:#038048;stroke-width:1.0;"/><text fill="#000000" font-family="sans-serif" font-size="11" lengthAdjust="spacing" textLength="139" x="658.5" y="315.2651">Classroom(string name)</text><ellipse cx="649.5" cy="324.8594" fill="#84BE84" rx="3" ry="3" style="stroke:#038048;stroke-width:1.0;"/><text fill="#000000" font-family="sans-serif" font-size="11" lengthAdjust="spacing" textLength="62" x="658.5" y="328.0698">getId() : int</text><ellipse cx="649.5" cy="337.6641" fill="#84BE84" rx="3" ry="3" style="stroke:#038048;stroke-width:1.0;"/><text fill="#000000" font-family="sans-serif" font-size="11" lengthAdjust="spacing" textLength="104" x="658.5" y="340.8745">getCode() :  string</text><ellipse cx="649.5" cy="350.4688" fill="#84BE84" rx="3" ry="3" style="stroke:#038048;stroke-width:1.0;"/><text fill="#000000" font-family="sans-serif" font-size="11" lengthAdjust="spacing" textLength="154" x="658.5" y="353.6792">setCode(string code) : void</text><!--MD5=[7421f545a0d8420c5bec41e74b387d9c]
class Employee--><rect codeLine="47" fill="#FEFECE" filter="url(#f1pqmu52u053wj)" height="265.6797" id="Employee" style="stroke:#A80036;stroke-width:1.5;" width="336" x="121.5" y="426.6406"/><ellipse cx="255.25" cy="442.6406" fill="#ADD1B2" rx="11" ry="11" style="stroke:#A80036;stroke-width:1.0;"/><path d="M258.2188,448.2813 Q257.6406,448.5781 257,448.7188 Q256.3594,448.875 255.6563,448.875 Q253.1563,448.875 251.8281,447.2344 Q250.5156,445.5781 250.5156,442.4531 Q250.5156,439.3281 251.8281,437.6719 Q253.1563,436.0156 255.6563,436.0156 Q256.3594,436.0156 257,436.1719 Q257.6563,436.3281 258.2188,436.625 L258.2188,439.3438 Q257.5938,438.7656 257,438.5 Q256.4063,438.2188 255.7813,438.2188 Q254.4375,438.2188 253.75,439.2969 Q253.0625,440.3594 253.0625,442.4531 Q253.0625,444.5469 253.75,445.625 Q254.4375,446.6875 255.7813,446.6875 Q256.4063,446.6875 257,446.4219 Q257.5938,446.1406 258.2188,445.5625 L258.2188,448.2813 Z " fill="#000000"/><text fill="#000000" font-family="sans-serif" font-size="12" lengthAdjust="spacing" textLength="60" x="275.75" y="446.7949">Employee</text><line style="stroke:#A80036;stroke-width:1.5;" x1="122.5" x2="456.5" y1="458.6406" y2="458.6406"/><rect fill="none" height="6" style="stroke:#C82930;stroke-width:1.0;" width="6" x="129.5" y="466.6406"/><text fill="#000000" font-family="sans-serif" font-size="11" lengthAdjust="spacing" textLength="36" x="141.5" y="472.8511">id : int</text><rect fill="none" height="6" style="stroke:#C82930;stroke-width:1.0;" width="6" x="129.5" y="479.4453"/><text fill="#000000" font-family="sans-serif" font-size="11" lengthAdjust="spacing" textLength="77" x="141.5" y="485.6558">name : string</text><rect fill="none" height="6" style="stroke:#C82930;stroke-width:1.0;" width="6" x="129.5" y="492.25"/><text fill="#000000" font-family="sans-serif" font-size="11" lengthAdjust="spacing" textLength="94" x="141.5" y="498.4604">gender : Gender</text><rect fill="none" height="6" style="stroke:#C82930;stroke-width:1.0;" width="6" x="129.5" y="505.0547"/><text fill="#000000" font-family="sans-serif" font-size="11" lengthAdjust="spacing" textLength="86" x="141.5" y="511.2651">contact : string</text><rect fill="none" height="6" style="stroke:#C82930;stroke-width:1.0;" width="6" x="129.5" y="517.8594"/><text fill="#000000" font-family="sans-serif" font-size="11" lengthAdjust="spacing" textLength="92" x="141.5" y="524.0698">address : string</text><line style="stroke:#A80036;stroke-width:1.5;" x1="122.5" x2="456.5" y1="530.6641" y2="530.6641"/><ellipse cx="132.5" cy="541.6641" fill="#84BE84" rx="3" ry="3" style="stroke:#038048;stroke-width:1.0;"/><text fill="#000000" font-family="sans-serif" font-size="11" lengthAdjust="spacing" textLength="63" x="141.5" y="544.8745">Employee()</text><ellipse cx="132.5" cy="554.4688" fill="#84BE84" rx="3" ry="3" style="stroke:#038048;stroke-width:1.0;"/><text fill="#000000" font-family="sans-serif" font-size="11" lengthAdjust="spacing" textLength="132" x="141.5" y="557.6792">Employee(string name)</text><ellipse cx="132.5" cy="567.2734" fill="#84BE84" rx="3" ry="3" style="stroke:#038048;stroke-width:1.0;"/><text fill="#000000" font-family="sans-serif" font-size="11" lengthAdjust="spacing" textLength="310" x="141.5" y="570.4839">Employee(string name, string contact, string address)</text><ellipse cx="132.5" cy="580.0781" fill="#84BE84" rx="3" ry="3" style="stroke:#038048;stroke-width:1.0;"/><text fill="#000000" font-family="sans-serif" font-size="11" lengthAdjust="spacing" textLength="62" x="141.5" y="583.2886">getId() : int</text><ellipse cx="132.5" cy="592.8828" fill="#84BE84" rx="3" ry="3" style="stroke:#038048;stroke-width:1.0;"/><text fill="#000000" font-family="sans-serif" font-size="11" lengthAdjust="spacing" textLength="104" x="141.5" y="596.0933">getName() : string</text><ellipse cx="132.5" cy="605.6875" fill="#84BE84" rx="3" ry="3" style="stroke:#038048;stroke-width:1.0;"/><text fill="#000000" font-family="sans-serif" font-size="11" lengthAdjust="spacing" textLength="163" x="141.5" y="608.8979">setName(string name) : void</text><ellipse cx="132.5" cy="618.4922" fill="#84BE84" rx="3" ry="3" style="stroke:#038048;stroke-width:1.0;"/><text fill="#000000" font-family="sans-serif" font-size="11" lengthAdjust="spacing" textLength="122" x="141.5" y="621.7026">getGender() : Gender</text><ellipse cx="132.5" cy="631.2969" fill="#84BE84" rx="3" ry="3" style="stroke:#038048;stroke-width:1.0;"/><text fill="#000000" font-family="sans-serif" font-size="11" lengthAdjust="spacing" textLength="189" x="141.5" y="634.5073">setGender(Gender gender) : void</text><ellipse cx="132.5" cy="644.1016" fill="#84BE84" rx="3" ry="3" style="stroke:#038048;stroke-width:1.0;"/><text fill="#000000" font-family="sans-serif" font-size="11" lengthAdjust="spacing" textLength="114" x="141.5" y="647.312">getContact() : string</text><ellipse cx="132.5" cy="656.9063" fill="#84BE84" rx="3" ry="3" style="stroke:#038048;stroke-width:1.0;"/><text fill="#000000" font-family="sans-serif" font-size="11" lengthAdjust="spacing" textLength="192" x="141.5" y="660.1167">setContact(string contact) : string</text><ellipse cx="132.5" cy="669.7109" fill="#84BE84" rx="3" ry="3" style="stroke:#038048;stroke-width:1.0;"/><text fill="#000000" font-family="sans-serif" font-size="11" lengthAdjust="spacing" textLength="118" x="141.5" y="672.9214">getAddress() : string</text><ellipse cx="132.5" cy="682.5156" fill="#84BE84" rx="3" ry="3" style="stroke:#038048;stroke-width:1.0;"/><text fill="#000000" font-family="sans-serif" font-size="11" lengthAdjust="spacing" textLength="192" x="141.5" y="685.7261">setAddress(string address) : void</text><!--MD5=[21bc47177812100412265a444b535d59]
class Professor--><rect codeLine="67" fill="#FEFECE" filter="url(#f1pqmu52u053wj)" height="188.8516" id="Professor" style="stroke:#A80036;stroke-width:1.5;" width="245" x="7" y="752.6406"/><ellipse cx="95.25" cy="768.6406" fill="#ADD1B2" rx="11" ry="11" style="stroke:#A80036;stroke-width:1.0;"/><path d="M98.2188,774.2813 Q97.6406,774.5781 97,774.7188 Q96.3594,774.875 95.6563,774.875 Q93.1563,774.875 91.8281,773.2344 Q90.5156,771.5781 90.5156,768.4531 Q90.5156,765.3281 91.8281,763.6719 Q93.1563,762.0156 95.6563,762.0156 Q96.3594,762.0156 97,762.1719 Q97.6563,762.3281 98.2188,762.625 L98.2188,765.3438 Q97.5938,764.7656 97,764.5 Q96.4063,764.2188 95.7813,764.2188 Q94.4375,764.2188 93.75,765.2969 Q93.0625,766.3594 93.0625,768.4531 Q93.0625,770.5469 93.75,771.625 Q94.4375,772.6875 95.7813,772.6875 Q96.4063,772.6875 97,772.4219 Q97.5938,772.1406 98.2188,771.5625 L98.2188,774.2813 Z " fill="#000000"/><text fill="#000000" font-family="sans-serif" font-size="12" lengthAdjust="spacing" textLength="60" x="115.75" y="772.7949">Professor</text><line style="stroke:#A80036;stroke-width:1.5;" x1="8" x2="251" y1="784.6406" y2="784.6406"/><rect fill="none" height="6" style="stroke:#C82930;stroke-width:1.0;" width="6" x="15" y="792.6406"/><text fill="#000000" font-family="sans-serif" font-size="11" lengthAdjust="spacing" textLength="86" x="27" y="798.8511">subject : string</text><rect fill="none" height="6" style="stroke:#C82930;stroke-width:1.0;" width="6" x="15" y="805.4453"/><text fill="#000000" font-family="sans-serif" font-size="11" lengthAdjust="spacing" textLength="75" x="27" y="811.6558">courses : list</text><rect fill="none" height="6" style="stroke:#C82930;stroke-width:1.0;" width="6" x="15" y="818.25"/><text fill="#000000" font-family="sans-serif" font-size="11" lengthAdjust="spacing" textLength="79" x="27" y="824.4604">students : list</text><line style="stroke:#A80036;stroke-width:1.5;" x1="8" x2="251" y1="831.0547" y2="831.0547"/><ellipse cx="18" cy="842.0547" fill="#84BE84" rx="3" ry="3" style="stroke:#038048;stroke-width:1.0;"/><text fill="#000000" font-family="sans-serif" font-size="11" lengthAdjust="spacing" textLength="64" x="27" y="845.2651">Professor()</text><ellipse cx="18" cy="854.8594" fill="#84BE84" rx="3" ry="3" style="stroke:#038048;stroke-width:1.0;"/><text fill="#000000" font-family="sans-serif" font-size="11" lengthAdjust="spacing" textLength="219" x="27" y="858.0698">Professor(string name, string subject)</text><ellipse cx="18" cy="867.6641" fill="#84BE84" rx="3" ry="3" style="stroke:#038048;stroke-width:1.0;"/><text fill="#000000" font-family="sans-serif" font-size="11" lengthAdjust="spacing" textLength="113" x="27" y="870.8745">getSubject() : string</text><ellipse cx="18" cy="880.4688" fill="#84BE84" rx="3" ry="3" style="stroke:#038048;stroke-width:1.0;"/><text fill="#000000" font-family="sans-serif" font-size="11" lengthAdjust="spacing" textLength="181" x="27" y="883.6792">setSubject(string subject) : void</text><ellipse cx="18" cy="893.2734" fill="#84BE84" rx="3" ry="3" style="stroke:#038048;stroke-width:1.0;"/><text fill="#000000" font-family="sans-serif" font-size="11" lengthAdjust="spacing" textLength="103" x="27" y="896.4839">getCourses() : list</text><ellipse cx="18" cy="906.0781" fill="#84BE84" rx="3" ry="3" style="stroke:#038048;stroke-width:1.0;"/><text fill="#000000" font-family="sans-serif" font-size="11" lengthAdjust="spacing" textLength="176" x="27" y="909.2886">setCourses(list courses) : void</text><ellipse cx="18" cy="918.8828" fill="#84BE84" rx="3" ry="3" style="stroke:#038048;stroke-width:1.0;"/><text fill="#000000" font-family="sans-serif" font-size="11" lengthAdjust="spacing" textLength="106" x="27" y="922.0933">getStudents() : list</text><ellipse cx="18" cy="931.6875" fill="#84BE84" rx="3" ry="3" style="stroke:#038048;stroke-width:1.0;"/><text fill="#000000" font-family="sans-serif" font-size="11" lengthAdjust="spacing" textLength="183" x="27" y="934.8979">setStudents(list students) : void</text><!--MD5=[8ffeeab22e9a257436a40afc9c846fbe]
class Officer--><rect codeLine="81" fill="#FEFECE" filter="url(#f1pqmu52u053wj)" height="112.0234" id="Officer" style="stroke:#A80036;stroke-width:1.5;" width="324" x="287.5" y="791.1406"/><ellipse cx="425.25" cy="807.1406" fill="#ADD1B2" rx="11" ry="11" style="stroke:#A80036;stroke-width:1.0;"/><path d="M428.2188,812.7813 Q427.6406,813.0781 427,813.2188 Q426.3594,813.375 425.6563,813.375 Q423.1563,813.375 421.8281,811.7344 Q420.5156,810.0781 420.5156,806.9531 Q420.5156,803.8281 421.8281,802.1719 Q423.1563,800.5156 425.6563,800.5156 Q426.3594,800.5156 427,800.6719 Q427.6563,800.8281 428.2188,801.125 L428.2188,803.8438 Q427.5938,803.2656 427,803 Q426.4063,802.7188 425.7813,802.7188 Q424.4375,802.7188 423.75,803.7969 Q423.0625,804.8594 423.0625,806.9531 Q423.0625,809.0469 423.75,810.125 Q424.4375,811.1875 425.7813,811.1875 Q426.4063,811.1875 427,810.9219 Q427.5938,810.6406 428.2188,810.0625 L428.2188,812.7813 Z " fill="#000000"/><text fill="#000000" font-family="sans-serif" font-size="12" lengthAdjust="spacing" textLength="40" x="445.75" y="811.2949">Officer</text><line style="stroke:#A80036;stroke-width:1.5;" x1="288.5" x2="610.5" y1="823.1406" y2="823.1406"/><rect fill="none" height="6" style="stroke:#C82930;stroke-width:1.0;" width="6" x="295.5" y="831.1406"/><text fill="#000000" font-family="sans-serif" font-size="11" lengthAdjust="spacing" textLength="145" x="307.5" y="837.3511">extensionNumber : string</text><line style="stroke:#A80036;stroke-width:1.5;" x1="288.5" x2="610.5" y1="843.9453" y2="843.9453"/><ellipse cx="298.5" cy="854.9453" fill="#84BE84" rx="3" ry="3" style="stroke:#038048;stroke-width:1.0;"/><text fill="#000000" font-family="sans-serif" font-size="11" lengthAdjust="spacing" textLength="46" x="307.5" y="858.1558">Officer()</text><ellipse cx="298.5" cy="867.75" fill="#84BE84" rx="3" ry="3" style="stroke:#038048;stroke-width:1.0;"/><text fill="#000000" font-family="sans-serif" font-size="11" lengthAdjust="spacing" textLength="260" x="307.5" y="870.9604">Officer(string name, string extensionNumber)</text><ellipse cx="298.5" cy="880.5547" fill="#84BE84" rx="3" ry="3" style="stroke:#038048;stroke-width:1.0;"/><text fill="#000000" font-family="sans-serif" font-size="11" lengthAdjust="spacing" textLength="171" x="307.5" y="883.7651">getExtensionNumber() : string</text><ellipse cx="298.5" cy="893.3594" fill="#84BE84" rx="3" ry="3" style="stroke:#038048;stroke-width:1.0;"/><text fill="#000000" font-family="sans-serif" font-size="11" lengthAdjust="spacing" textLength="298" x="307.5" y="896.5698">setExtensionNumber(string extensionNumber) : void</text><!--MD5=[a4ea2dcb44ebd57046df9af95d8b8c12]
class Gender--><rect codeLine="89" fill="#FEFECE" filter="url(#f1pqmu52u053wj)" height="86.4141" id="Gender" style="stroke:#A80036;stroke-width:1.5;" width="78" x="8.5" y="516.6406"/><ellipse cx="23.5" cy="532.6406" fill="#EB937F" rx="11" ry="11" style="stroke:#A80036;stroke-width:1.0;"/><path d="M27.6094,538.6406 L19.8906,538.6406 L19.8906,526.25 L27.6094,526.25 L27.6094,528.4063 L22.3438,528.4063 L22.3438,531.0781 L27.1094,531.0781 L27.1094,533.2344 L22.3438,533.2344 L22.3438,536.4844 L27.6094,536.4844 L27.6094,538.6406 Z " fill="#000000"/><text fill="#000000" font-family="sans-serif" font-size="12" lengthAdjust="spacing" textLength="46" x="37.5" y="536.7949">Gender</text><line style="stroke:#A80036;stroke-width:1.5;" x1="9.5" x2="85.5" y1="548.6406" y2="548.6406"/><text fill="#000000" font-family="sans-serif" font-size="11" lengthAdjust="spacing" textLength="30" x="14.5" y="562.8511">Male,</text><text fill="#000000" font-family="sans-serif" font-size="11" lengthAdjust="spacing" textLength="45" x="14.5" y="575.6558">Female,</text><text fill="#000000" font-family="sans-serif" font-size="11" lengthAdjust="spacing" textLength="32" x="14.5" y="588.4604">Other</text><line style="stroke:#A80036;stroke-width:1.5;" x1="9.5" x2="85.5" y1="595.0547" y2="595.0547"/><!--MD5=[c58722ad943d1a93527b05ecdb33849f]
link University to Department--><path codeLine="95" d="M486.55,156.7506 C480.44,173.4306 473.83,191.4606 467.51,208.7206 " fill="none" id="University-to-Department" style="stroke:#A80036;stroke-width:1.0;"/><line style="stroke:#A80036;stroke-width:1.0;" x1="467.3731" x2="472.145" y1="209.0756" y2="216.5906"/><line style="stroke:#A80036;stroke-width:1.0;" x1="467.3731" x2="457.115" y1="209.0756" y2="216.5906"/><line style="stroke:#A80036;stroke-width:1.0;" x1="467.3731" x2="464.63" y1="209.0756" y2="216.5906"/><!--MD5=[ab8fa219d598cc4a2e029145582266e3]
link University to Office--><path codeLine="96" d="M534.37,156.7906 C540.08,175.9606 545.67,196.9606 549.5,216.6406 C567.09,306.9406 575.46,412.5706 579.34,482.2806 " fill="none" id="University-to-Office" style="stroke:#A80036;stroke-width:1.0;"/><line style="stroke:#A80036;stroke-width:1.0;" x1="579.3613" x2="587.7785" y1="482.6121" y2="490.6006"/><line style="stroke:#A80036;stroke-width:1.0;" x1="579.3613" x2="571.8015" y1="482.6121" y2="490.6006"/><line style="stroke:#A80036;stroke-width:1.0;" x1="579.3613" x2="579.79" y1="482.6121" y2="490.6006"/><!--MD5=[7585326560944fb5cd40035b8bad1bea]
link University to Classroom--><path codeLine="97" d="M584.66,156.7506 C605.47,176.1106 628.22,197.2906 649.37,216.9806 " fill="none" id="University-to-Classroom" style="stroke:#A80036;stroke-width:1.0;"/><line style="stroke:#A80036;stroke-width:1.0;" x1="649.4335" x2="660.7406" y1="217.03" y2="222.4906"/><line style="stroke:#A80036;stroke-width:1.0;" x1="649.4335" x2="649.8194" y1="217.03" y2="222.4906"/><line style="stroke:#A80036;stroke-width:1.0;" x1="649.4335" x2="655.28" y1="217.03" y2="222.4906"/><!--MD5=[fa677292f09c8bc3cf253100764fbe09]
link Department to Office--><path codeLine="98" d="M477.89,366.7406 C497.69,403.0506 521.49,446.7106 541.38,483.2106 " fill="none" id="Department-to-Office" style="stroke:#A80036;stroke-width:1.0;"/><line style="stroke:#A80036;stroke-width:1.0;" x1="541.4832" x2="552.3353" y1="483.3853" y2="490.4106"/><line style="stroke:#A80036;stroke-width:1.0;" x1="541.4832" x2="538.2847" y1="483.3853" y2="490.4106"/><line style="stroke:#A80036;stroke-width:1.0;" x1="541.4832" x2="545.31" y1="483.3853" y2="490.4106"/><!--MD5=[6eb22ec549bcddebb7b66789d787ee39]
link University to Employee--><path codeLine="99" d="M416.63,132.1906 C382.28,152.8406 346.74,180.9306 325.5,216.6406 C289.95,276.4306 279.3,352.6406 278.25,417.9406 " fill="none" id="University-to-Employee" style="stroke:#A80036;stroke-width:1.0;"/><line style="stroke:#A80036;stroke-width:1.0;" x1="278.2557" x2="286.1695" y1="418.2611" y2="426.2606"/><line style="stroke:#A80036;stroke-width:1.0;" x1="278.2557" x2="270.1705" y1="418.2611" y2="426.2606"/><line style="stroke:#A80036;stroke-width:1.0;" x1="278.2557" x2="278.17" y1="418.2611" y2="426.2606"/><!--MD5=[fb1c6838a2d9fd2d5d2b98bf58eca9c9]
link Employee to Office--><path codeLine="100" d="M465.86,559.6406 C471.93,559.6406 478,559.6406 484.07,559.6406 " fill="none" id="Employee-Office" style="stroke:#A80036;stroke-width:1.0;"/><line style="stroke:#A80036;stroke-width:1.0;" x1="484.35" x2="492.35" y1="559.6406" y2="551.6406"/><line style="stroke:#A80036;stroke-width:1.0;" x1="484.35" x2="492.35" y1="559.6406" y2="567.6406"/><line style="stroke:#A80036;stroke-width:1.0;" x1="484.35" x2="492.35" y1="559.6406" y2="559.6406"/><line style="stroke:#A80036;stroke-width:1.0;" x1="465.75" x2="457.75" y1="559.6406" y2="567.6406"/><line style="stroke:#A80036;stroke-width:1.0;" x1="465.75" x2="457.75" y1="559.6406" y2="551.6406"/><line style="stroke:#A80036;stroke-width:1.0;" x1="465.75" x2="457.75" y1="559.6406" y2="559.6406"/><!--MD5=[0c945378f4dcdfb7a9e20fb938dab88d]
reverse link Employee to Professor--><path codeLine="101" d="M205.55,710.4306 C197.52,724.7606 189.55,738.9906 181.95,752.5506 " fill="none" id="Employee-backto-Professor" style="stroke:#A80036;stroke-width:1.0;"/><polygon fill="none" points="199.47,706.9706,215.35,692.9406,211.68,713.8106,199.47,706.9706" style="stroke:#A80036;stroke-width:1.0;"/><!--MD5=[6e189379268b1c050524edd930191325]
reverse link Employee to Officer--><path codeLine="102" d="M373.42,710.3906 C389.57,739.1906 405.49,767.6106 418.57,790.9506 " fill="none" id="Employee-backto-Officer" style="stroke:#A80036;stroke-width:1.0;"/><polygon fill="none" points="367.32,713.8106,363.65,692.9406,379.53,706.9706,367.32,713.8106" style="stroke:#A80036;stroke-width:1.0;"/><!--MD5=[728aed88e97d7c3aec7cb05da9b9269d]
reverse link Gender to Employee--><path codeLine="103" d="M99.92,559.6406 C107.01,559.6406 114.1,559.6406 121.19,559.6406 " fill="none" id="Gender-backto-Employee" style="stroke:#A80036;stroke-width:1.0;"/><polygon fill="#A80036" points="86.73,559.6406,92.73,563.6406,98.73,559.6406,92.73,555.6406,86.73,559.6406" style="stroke:#A80036;stroke-width:1.0;"/><!--MD5=[b0abdd1322ee1edf4902d1efe387c63e]
@startuml
center header
University Management System
endheader


class University {
  -id : int *
  -name : string
  +University()
  +University(string name)
  +getId() : int
  +getName() :  string
  +setName(string name) : void
}

class Department {
  -id : int *
  -name : string
  +Department()
  +Department(string name)
  +getId() : int
  +getName() :  string
  +setName(string name) : void
  +getCode() : string
}

class Office {
  -id : int *
  -code : string
  +Office()
  +Office(string name)
  +getId() : int
  +getCode() :  string
  +setCode(string code) : void
}

class Classroom  {
  -id : int *
  -code : string
  +Classroom()
  +Classroom(string name)
  +getId() : int
  +getCode() :  string
  +setCode(string code) : void
}

class Employee {
  -id : int
  -name : string
  -gender : Gender
  -contact : string
  -address : string
  +Employee()
  +Employee(string name)
  +Employee(string name, string contact, string address)
  +getId() : int
  +getName() : string
  +setName(string name) : void
  +getGender() : Gender
  +setGender(Gender gender) : void
  +getContact() : string
  +setContact(string contact) : string
  +getAddress() : string
  +setAddress(string address) : void
}

class Professor {
  -subject : string
  -courses : list
  -students : list
  +Professor()
  +Professor(string name, string subject)
  +getSubject() : string
  +setSubject(string subject) : void
  +getCourses() : list
  +setCourses(list courses) : void
  +getStudents() : list
  +setStudents(list students) : void
}

class Officer {
  -extensionNumber : string
  +Officer()
  +Officer(string name, string extensionNumber)
  +getExtensionNumber() : string
  +setExtensionNumber(string extensionNumber) : void
}

enum Gender {
  Male,
  Female,
  Other
}

University -{ Department
University - - -{ Office
University - -{ Classroom
Department - -{ Office
University - - -{ Employee
Employee }-{ Office
Professor -up-|> Employee
Officer -up-|> Employee
Gender *- Employee
@enduml

PlantUML version 1.2021.16(Wed Dec 08 17:25:22 UTC 2021)
(GPL source distribution)
Java Runtime: OpenJDK Runtime Environment
JVM: OpenJDK 64-Bit Server VM
Default Encoding: UTF-8
Language: en
Country: US
--></g></svg>